<svg width="57" height="65" viewBox="0 0 57 65" fill="none" xmlns="http://www.w3.org/2000/svg">
<path d="M31.2421 23.9403C30.5626 23.2947 29.6601 22.9346 28.7215 22.9346C27.783 22.9346 26.8804 23.2947 26.201 23.9403L23.8073 26.327C23.6523 26.4814 23.55 26.6805 23.5147 26.8961C23.4795 27.1116 23.5132 27.3328 23.611 27.5282L24.7656 29.8296C25.1328 30.5621 25.6974 31.1782 26.396 31.6087C27.0946 32.0393 27.8997 32.2674 28.721 32.2674C29.5423 32.2674 30.3474 32.0393 31.046 31.6087C31.7446 31.1782 32.3092 30.5621 32.6764 29.8296L33.8362 27.5282C33.934 27.3328 33.9677 27.1116 33.9325 26.8961C33.8973 26.6805 33.7949 26.4814 33.6399 26.327L31.2421 23.9403ZM29.7649 25.4121L30.8548 26.4988L28.721 27.0307L26.5872 26.4988L27.6771 25.4121C27.9582 25.1441 28.3321 24.9946 28.721 24.9946C29.1099 24.9946 29.4838 25.1441 29.7649 25.4121ZM28.721 30.1856C28.2872 30.1871 27.8617 30.0673 27.4926 29.8399C27.1236 29.6125 26.8259 29.2866 26.6332 28.8991L26.4943 28.6212L28.4673 29.1135C28.6339 29.1551 28.8081 29.1551 28.9747 29.1135L30.9477 28.6212L30.8088 28.8991C30.6161 29.2866 30.3184 29.6125 29.9494 29.8399C29.5803 30.0673 29.1548 30.1871 28.721 30.1856Z" fill="white"/>
<path d="M53.4087 25.0322L42.3431 27.1004C43.6128 23.8635 43.6684 20.2784 42.4997 17.0039L48.4114 20.2191C48.6044 20.3243 48.8257 20.3661 49.0439 20.3384C49.2621 20.3107 49.4659 20.215 49.6263 20.065C49.7867 19.915 49.8955 19.7183 49.9372 19.503C49.9788 19.2877 49.9512 19.0647 49.8583 18.866C44.3412 7.05302 36.446 0 28.721 0C20.996 0 13.1008 7.05302 7.58475 18.8691C7.49182 19.0679 7.46422 19.2908 7.50588 19.5061C7.54754 19.7214 7.65633 19.9181 7.81673 20.0681C7.97714 20.2181 8.18096 20.3138 8.39913 20.3415C8.61729 20.3692 8.83865 20.3274 9.03162 20.2223L14.9413 17.007C13.7726 20.2815 13.8282 23.8666 15.0978 27.1035L4.03229 25.0343C3.8533 25.0004 3.67163 24.9826 3.48945 24.9812C2.70626 24.9823 1.95547 25.293 1.40167 25.8452C0.847871 26.3974 0.536261 27.146 0.535156 27.9269C0.535813 28.906 0.791961 29.868 1.27843 30.7185C3.6114 34.7879 7.05957 38.1098 11.2186 40.2947C11.0586 41.0785 10.9768 41.8763 10.9744 42.6762C10.9744 48.5707 15.267 53.6481 21.4136 55.9402V57.6462L15.7273 60.4805L16.6606 62.3437L20.1233 60.6168L18.3914 64.0695L20.26 65L21.9554 61.6203L22.4773 64.7075L24.5359 64.3661L23.5014 58.2041V56.6032C26.9276 57.4637 30.5144 57.4637 33.9406 56.6032V58.2041L32.9113 64.364L34.9699 64.7054L35.4919 61.6182L37.1767 65L39.0454 64.0695L37.3135 60.6168L40.7814 62.3489L41.7147 60.4857L36.0284 57.6462V55.9402C42.175 53.6502 46.4676 48.5707 46.4676 42.6762C46.4652 41.8766 46.3833 41.0792 46.2234 40.2957C50.3824 38.1108 53.8306 34.789 56.1636 30.7196C56.6502 29.8688 56.9064 28.9063 56.9068 27.9269C56.9015 27.4958 56.8023 27.0711 56.6161 26.6821C56.4299 26.293 56.1612 25.9489 55.8285 25.6736C55.4958 25.3983 55.1071 25.1984 54.6893 25.0877C54.2715 24.9769 53.8345 24.958 53.4087 25.0322ZM28.721 34.3491C26.6011 34.3505 24.5155 33.8151 22.6599 32.7931C20.8043 31.7711 19.2393 30.2959 18.1118 28.506C16.9842 26.716 16.331 24.6699 16.2134 22.5594C16.0958 20.4489 16.5176 18.3432 17.4394 16.4397L21.6557 21.4849C21.7487 21.5958 21.8638 21.6863 21.9938 21.7504C22.1237 21.8146 22.2656 21.8511 22.4105 21.8575C22.5556 21.866 22.7008 21.8432 22.8362 21.7908C22.9717 21.7383 23.0942 21.6574 23.1955 21.5536L28.721 16.0442L34.2465 21.5536C34.4422 21.7488 34.7077 21.8585 34.9845 21.8585H35.0315C35.1764 21.8521 35.3183 21.8156 35.4482 21.7515C35.5782 21.6873 35.6933 21.5969 35.7863 21.4859L40.0026 16.4407C40.9241 18.3442 41.3458 20.4498 41.228 22.5601C41.1103 24.6705 40.4571 26.7164 39.3295 28.5062C38.202 30.296 36.6372 31.7711 34.7817 32.793C32.9262 33.815 30.8408 34.3504 28.721 34.3491ZM9.82604 37.0284C10.2792 36.2886 10.6473 35.5001 10.9232 34.6781L8.93976 34.0202C8.73281 34.6156 8.46668 35.1888 8.14533 35.7314C7.40753 35.1139 6.71015 34.4498 6.05749 33.7433C6.65255 33.1475 7.19139 32.4984 7.66722 31.8042L5.93014 30.6488C5.5704 31.1759 5.16746 31.6724 4.72545 32.1331C4.12831 31.3535 3.58258 30.5361 3.09172 29.686C2.7847 29.1502 2.62314 28.5439 2.623 27.9269C2.62731 27.8013 2.65823 27.6781 2.71372 27.5654C2.7692 27.4526 2.848 27.3528 2.94493 27.2726C3.04186 27.1924 3.15473 27.1335 3.27611 27.0999C3.39748 27.0663 3.52463 27.0586 3.64917 27.0775L16.2608 29.4351C16.6627 30.0945 17.1165 30.721 17.6179 31.3087C15.0058 32.9642 12.9757 35.3897 11.8095 38.2483C11.1279 37.8756 10.4659 37.4684 9.82604 37.0284ZM28.721 55.1668C20.0867 55.1668 13.0622 49.5637 13.0622 42.6762C13.0622 38.8249 15.3306 35.1974 19.1357 32.8326C21.787 35.1521 25.1938 36.4311 28.721 36.4311C32.2482 36.4311 35.655 35.1521 38.3063 32.8326C42.1114 35.1974 44.3798 38.8249 44.3798 42.6762C44.3798 49.5637 37.3553 55.1668 28.721 55.1668ZM54.3503 29.686C53.859 30.5359 53.3133 31.3533 52.7165 32.1331C52.275 31.6719 51.8721 31.1755 51.5119 30.6488L49.7748 31.8042C50.2508 32.4982 50.7896 33.1473 51.3845 33.7433C50.7318 34.4498 50.0345 35.1139 49.2967 35.7314C48.9753 35.1888 48.7092 34.6156 48.5022 34.0202L46.5188 34.6781C46.7947 35.5001 47.1627 36.2886 47.6159 37.0284C46.9761 37.4684 46.3141 37.8756 45.6325 38.2483C44.4671 35.3901 42.4381 32.9647 39.8273 31.3087C40.3287 30.721 40.7825 30.0945 41.1844 29.4351L53.7939 27.0786C53.9185 27.0578 54.0463 27.064 54.1683 27.0968C54.2904 27.1296 54.4039 27.1883 54.5012 27.2688C54.5984 27.3493 54.6772 27.4497 54.732 27.5633C54.7869 27.6768 54.8165 27.8009 54.819 27.9269C54.8189 28.5439 54.6573 29.1502 54.3503 29.686Z" fill="white"/>
</svg>
