<svg width="65" height="70" viewBox="0 0 65 70" fill="none" xmlns="http://www.w3.org/2000/svg">
<path d="M17.5125 0.00106734C16.2084 0.184537 15.4004 1.1534 14.6646 1.79439C14.4034 0.72311 13.836 0.0352196 12.7218 0.0228996C11.0207 0.11173 10.3144 1.31466 9.63106 2.55989C8.59949 1.8517 7.64912 2.18191 6.82729 3.01918C6.15101 3.91959 5.98354 5.00747 5.85591 6.01554C4.69941 6.34216 3.69574 7.16934 3.40536 8.24636C3.1723 9.16994 3.43108 9.9881 3.82483 10.7834C2.60634 11.6371 1.49049 12.6586 0.42498 13.7141C0.0221498 14.1003 -0.112464 14.7362 0.0997895 15.2501C0.312043 15.7641 0.857887 16.1242 1.41844 16.12C3.00889 16.12 3.77259 16.2711 4.48713 16.448C4.03205 17.6135 3.53783 18.8881 3.53783 20.3192C3.63185 23.9086 6.18991 25.3206 9.16745 25.7214C9.14237 26.9997 8.78365 28.2158 8.15191 29.7457C7.35967 31.6641 6.36368 34.025 6.36368 37.1161C6.36368 41.4745 8.65669 46.4097 12.3024 50.3919C14.0014 52.2476 16.0302 53.8822 18.2852 55.116L17.2255 56.4283C14.6044 55.2767 12.0268 54.5721 9.54276 53.9568C8.90368 53.7907 8.16883 54.1377 7.8966 54.7342C7.62439 55.3306 7.84672 56.1063 8.39476 56.472C9.88671 57.4574 11.3434 58.493 12.766 59.6652C11.2291 60.233 9.85247 60.8677 8.39476 61.8304C7.80765 62.1786 7.55126 62.9856 7.83117 63.6041C8.11108 64.2227 8.88972 64.57 9.54276 64.3675C12.3341 63.6761 14.265 63.0711 16.7398 63.0333C18.1358 63.4072 19.5544 64.75 22.3253 67.495C22.7176 67.8792 23.348 68.0019 23.8579 67.7934C24.3678 67.5848 24.7272 67.0573 24.7317 66.5108C24.7317 64.6657 23.9384 63.0589 23.0097 61.5461C23.5273 61.402 23.9403 60.9412 24.0234 60.4148C24.1066 59.8886 23.8555 59.3249 23.4071 59.031L22.4136 58.3748L23.2305 56.9969C24.4014 57.2551 25.6086 57.4125 26.8511 57.4125C29.7003 57.4125 32.8058 57.2108 35.8805 56.6908L35.439 61.0211C32.3498 61.1752 29.6695 61.7447 27.2043 62.3553C26.5448 62.5231 26.0683 63.2184 26.1541 63.8876C26.2399 64.5568 26.8766 65.1119 27.5575 65.1111C29.6103 65.1111 31.4797 65.2026 33.0989 65.4392C32.698 66.1259 32.2746 66.9264 31.8625 68.1512C31.6539 68.7455 31.9111 69.4668 32.4503 69.7994C32.9896 70.132 33.7564 70.0424 34.2027 69.5946C36.0878 67.7272 36.851 67.0208 38.4194 65.9422C40.8388 66.5677 42.8454 67.185 44.7776 67.8231C45.3745 68.0125 46.0856 67.7511 46.4133 67.2217C46.7409 66.6924 46.6537 65.9459 46.2126 65.5048C45.1913 64.493 43.8493 63.5927 42.4153 62.8147C42.4454 62.7951 42.4506 62.7916 42.4815 62.7706C42.9783 62.4372 43.216 61.768 43.0396 61.1999C42.8631 60.6318 42.2868 60.2107 41.6867 60.2116H40.4284L40.892 55.5094C41.9327 55.1861 42.9553 54.8211 43.9386 54.394C48.9717 52.2071 53.1152 48.3596 54.2044 42.4743C56.4596 41.9243 58.9608 41.7352 60.8054 40.5278C61.074 40.3007 61.4677 39.8862 61.4677 39.2155C61.4677 38.6546 61.2193 38.2267 60.9378 37.8814C62.1288 37.0968 63.1825 36.256 64.139 35.3225C64.686 34.824 64.8783 34.1438 65 33.6165C65 32.9749 64.6209 32.3984 64.2935 32.1074C64.0551 31.8954 63.8437 31.8212 63.6312 31.7137C64.3901 30.8659 64.9874 29.6811 65 28.7174C64.9999 27.9845 64.3269 27.3177 63.5871 27.3177H62.9248C63.3611 26.5308 63.5976 25.6282 63.7637 24.8243C63.8295 24.2533 63.8438 23.4821 63.1676 22.8123C62.4455 22.246 61.6879 22.4475 60.9158 22.6373C61.2033 21.8031 61.4522 20.8847 61.6002 20.0783C61.6833 19.468 61.8354 18.6929 61.0482 17.9131C60.7853 17.6611 60.4205 17.5166 60.0548 17.5194C59.2558 17.5194 58.783 17.7733 58.3328 18.0443C58.1127 16.6546 58.103 15.1594 57.4718 14.02C57.0627 13.3017 56.1104 12.6203 55.1095 12.6203C54.2951 12.6203 53.7579 12.9801 53.2992 13.3639C51.6514 14.9222 50.4049 17.0858 49.3916 18.8099C47.7291 21.6449 46.0041 24.8114 44.5126 27.1427C41.3793 26.4681 37.2804 25.4633 33.2313 25.8742C31.2519 22.6992 29.2784 20.0187 27.3367 17.4538C25.9402 14.1021 23.8623 11.3472 21.2877 8.70535C21.884 7.00939 22.6189 4.48014 21.4863 3.2158C20.6518 2.58727 19.619 2.87035 18.7267 3.0408C19.555 1.59943 18.8337 -0.0479327 17.5125 0.00106734ZM18.9255 10.2367C21.5981 12.9057 23.5355 15.4866 24.8421 18.7227C24.8859 18.8391 24.9455 18.9498 25.0187 19.0507C26.3585 20.8205 27.6769 22.6011 28.9925 24.5184C28.1662 24.6442 27.5749 25.1487 27.5575 26.0932L27.977 29.4832L25.8797 28.7833C25.0263 28.5051 24.0084 29.2494 24.0252 30.1393V30.7736L19.654 28.827C18.7944 28.4485 17.6595 29.1856 17.6671 30.1174V30.8173L14.2672 28.2802C13.4517 27.6821 12.0699 28.3265 12.0154 29.3301L11.5076 28.9145C11.909 27.738 12.1716 26.4761 12.0816 25.0871C13.8179 23.3733 14.5457 20.9281 13.8036 18.7227C13.1662 16.8282 11.4448 15.2857 8.90253 14.5015C9.06993 14.1611 9.18952 13.7834 9.18952 13.3205C9.18916 13.101 9.13576 12.8817 9.03498 12.6863C9.03498 12.6863 8.66597 11.9639 7.93114 11.199C9.99443 9.46967 11.8198 8.51699 13.3621 8.39953C15.3872 8.25568 17.6225 9.12404 18.9255 10.2367ZM13.4283 10.521C12.2578 10.521 11.3089 11.3044 11.3089 12.2707C11.3089 13.237 12.2578 14.0203 13.4283 14.0203C14.5988 14.0203 15.5477 13.237 15.5477 12.2707C15.5477 11.3044 14.5988 10.521 13.4283 10.521ZM12.7218 11.9207C13.112 11.9207 13.4283 12.2341 13.4283 12.6206C13.4283 13.0071 13.112 13.3205 12.7218 13.3205C12.3317 13.3205 12.0154 13.0071 12.0154 12.6206C12.0154 12.2341 12.3317 11.9207 12.7218 11.9207ZM55.0433 15.595C55.65 17.2254 55.4029 19.2655 55.8823 20.7566C56.136 21.5223 57.1452 21.9333 57.8692 21.5658C58.0704 21.4663 58.2124 21.3679 58.399 21.2597C58.0368 22.398 57.5386 23.7284 57.2731 24.9121C57.0599 25.8962 58.2262 26.877 59.1717 26.5087C59.6235 26.3295 60.0547 26.1247 60.4963 25.9182C60.1889 26.6699 59.8019 27.4908 59.5029 28.0835C59.0677 28.9321 59.8004 30.1165 60.7613 30.1174H61.3353C61.0749 30.4771 60.8733 30.8156 60.4743 31.211C59.8743 31.7899 59.9774 32.9138 60.673 33.3762C61.0528 33.6271 61.3063 33.697 61.6002 33.8136C60.4828 34.8649 59.0618 35.8303 57.8471 36.635C57.0365 37.2851 57.1252 38.2544 57.6926 38.8443C56.0166 39.3017 54.1811 39.6451 52.7032 39.938C52.1248 40.0524 51.6488 40.561 51.5772 41.1409C50.9331 46.5648 47.536 49.774 42.7906 51.8358C38.0452 53.8978 32.024 54.6134 26.8511 54.6134C22.055 54.6134 17.6199 52.0531 14.3776 48.5114C11.1353 44.9695 9.18952 40.4565 9.18952 37.1161C9.18952 34.9776 9.7665 33.3123 10.4258 31.6704L13.2296 33.9886C13.665 34.3419 14.3216 34.3998 14.8132 34.1282C15.3048 33.8566 15.6002 33.2728 15.5256 32.7201L18.2411 34.7323C18.6577 35.0368 19.2488 35.0872 19.7119 34.8578C20.1749 34.6284 20.4888 34.1297 20.4929 33.6168V32.2608L24.9083 34.2292C25.7679 34.6077 26.9028 33.8706 26.8952 32.9387L26.8732 32.0421L29.2354 32.8295C30.1329 33.1287 31.1984 32.2741 31.0899 31.3422C31.1767 30.0925 31.2192 28.0143 31.2003 27.9085C31.5899 28.5132 32.134 28.7525 32.7457 28.6958C36.5073 28.0747 41.2932 29.3527 44.9321 30.0737C45.4773 30.1846 46.0788 29.9409 46.3892 29.4832C48.1151 26.9184 50.0488 23.2523 51.8201 20.2317C52.8418 18.5795 53.7262 16.9478 55.0434 15.595H55.0433ZM23.7162 35.5415C20.7358 37.3919 19.7728 40.9519 20.2501 43.5243C20.8898 46.5877 23.4872 49.4439 27.7121 50.042C31.8349 50.2527 35.5269 49.524 38.7947 48.5547C40.5318 48.0269 42.0713 47.4092 43.2542 46.6301C44.4597 45.7904 45.4935 44.4458 45.1749 43.0651C44.6639 41.6513 43.5622 41.1241 42.2829 40.8124C39.7827 40.5008 37.4558 40.974 35.0416 41.0312C34.0289 41.0515 33.2848 40.826 33.2976 40.8344C32.7202 40.453 31.3291 38.6875 29.8315 37.2037C29.0826 36.4619 28.2654 35.764 27.2264 35.3448C25.9974 34.931 24.8336 34.9467 23.7162 35.5415Z" fill="white"/>
</svg>
