<svg width="66" height="65" viewBox="0 0 66 65" fill="none" xmlns="http://www.w3.org/2000/svg">
<path d="M64.6968 31.6409C63.2347 30.1874 61.9304 28.5833 60.8057 26.8554C61.1841 24.8242 61.7759 22.8386 62.5713 20.9317C62.6499 20.7225 62.6665 20.4951 62.6191 20.2767C62.5717 20.0583 62.4624 19.8582 62.3041 19.7005C62.1951 19.5929 62.0644 19.5097 61.9208 19.4565C60.0166 18.661 58.199 17.6724 56.4965 16.5063C56.068 14.4863 55.8539 12.4267 55.8577 10.3618C55.8577 10.0537 55.7353 9.75831 55.5175 9.54048C55.2996 9.32266 55.0042 9.20028 54.6961 9.20028C52.6312 9.20406 50.5716 8.98993 48.5517 8.56144C47.3753 6.85495 46.3825 5.02897 45.5898 3.1139C45.4719 2.83008 45.2464 2.60454 44.9626 2.48668C44.6798 2.3705 44.3626 2.3705 44.0798 2.48668C42.1689 3.28208 40.1794 3.87386 38.1444 4.25219C36.4121 3.12426 34.8041 1.81606 33.3473 0.349474C33.2392 0.238844 33.11 0.150941 32.9674 0.0909273C32.8247 0.030914 32.6716 0 32.5168 0C32.3621 0 32.2089 0.030914 32.0663 0.0909273C31.9237 0.150941 31.7945 0.238844 31.6864 0.349474C30.2344 1.80869 28.6345 3.11275 26.9125 4.24058C24.8771 3.86385 22.8875 3.27203 20.9771 2.47506C20.7709 2.3985 20.5479 2.3786 20.3314 2.41741C20.1149 2.45622 19.9127 2.55233 19.7459 2.69575C19.6383 2.80478 19.5552 2.93544 19.502 3.07905C18.7065 4.98321 17.7179 6.80081 16.5517 8.50337C14.5318 8.93246 12.4722 9.14659 10.4072 9.1422C10.0992 9.1422 9.80375 9.26458 9.58593 9.48241C9.3681 9.70023 9.24572 9.99567 9.24572 10.3037C9.24951 12.3687 9.03537 14.4282 8.60689 16.4482C6.90039 17.6245 5.07441 18.6173 3.15934 19.4101C2.87553 19.5279 2.64999 19.7535 2.53212 20.0373C2.41595 20.3201 2.41595 20.6373 2.53212 20.92C3.32753 22.831 3.9193 24.8204 4.29764 26.8554C3.1697 28.5877 1.8615 30.1957 0.394918 31.6525C0.276722 31.7561 0.180778 31.8826 0.112896 32.0244C0.0450146 32.1661 0.00660755 32.3202 0 32.4772C0.00250476 32.7885 0.122862 33.0874 0.336842 33.3135C1.79898 34.767 3.10327 36.3711 4.22794 38.099C3.84958 40.1302 3.25779 42.1158 2.46243 44.0227C2.37125 44.2394 2.34797 44.4787 2.39567 44.7089C2.44337 44.9391 2.5598 45.1494 2.72958 45.312C2.83861 45.4196 2.96927 45.5027 3.11288 45.556C5.01704 46.3515 6.83464 47.3401 8.5372 48.5062C8.96568 50.5262 9.17981 52.5858 9.17603 54.6507C9.17603 54.9587 9.29841 55.2542 9.51624 55.472C9.73406 55.6898 10.0295 55.8122 10.3376 55.8122C12.4025 55.8078 14.4621 56.022 16.482 56.451C17.6584 58.1575 18.6512 59.9835 19.4439 61.8986C19.5621 62.1811 19.7871 62.4054 20.0698 62.5229C20.3526 62.6404 20.6703 62.6414 20.9539 62.5258C22.8648 61.7304 24.8543 61.1386 26.8893 60.7603C28.6216 61.8882 30.2296 63.1964 31.6864 64.663C31.7963 64.7721 31.9269 64.858 32.0705 64.9159C32.2141 64.9737 32.3678 65.0023 32.5227 64.9999C32.8396 64.9972 33.1433 64.8724 33.3706 64.6514C34.8241 63.1893 36.4281 61.885 38.156 60.7603C40.1873 61.1387 42.1729 61.7304 44.0798 62.5258C44.298 62.6079 44.5349 62.6264 44.7632 62.5791C44.9914 62.5318 45.2015 62.4207 45.3691 62.2587C45.4767 62.1496 45.5598 62.019 45.613 61.8754C46.4085 59.9712 47.3971 58.1536 48.5633 56.451C50.5833 56.0226 52.6428 55.8084 54.7077 55.8122C55.0158 55.8122 55.3112 55.6898 55.5291 55.472C55.7469 55.2542 55.8693 54.9587 55.8693 54.6507C55.8655 52.5858 56.0796 50.5262 56.5081 48.5062C58.2146 47.3299 60.0406 46.3371 61.9557 45.5443C62.2395 45.4265 62.465 45.2009 62.5829 44.9171C62.699 44.6343 62.699 44.3172 62.5829 44.0344C61.7875 42.1234 61.1957 40.134 60.8174 38.099C61.9453 36.3667 63.2535 34.7587 64.7201 33.3019C64.8292 33.1922 64.9153 33.0618 64.9733 32.9183C65.0314 32.7748 65.0602 32.6212 65.058 32.4665C65.0558 32.3118 65.0228 32.159 64.9607 32.0173C64.8987 31.8755 64.809 31.7475 64.6968 31.6409ZM58.5988 37.2278C58.5066 37.3887 58.4473 37.5664 58.4246 37.7505V37.8551C58.4131 37.9243 58.4131 37.9949 58.4246 38.0641C58.7518 40.0464 55.7885 40.621 56.4965 42.5011C54.666 43.3351 56.4042 45.713 54.7658 46.8801C54.532 47.0437 54.3666 47.2876 54.3012 47.5654C53.8583 49.523 53.6016 51.5181 53.5346 53.524C51.5287 53.591 49.5336 53.8477 47.576 54.2906C47.2982 54.356 47.0543 54.5214 46.8907 54.7552C45.723 56.3931 44.5629 58.3753 43.7297 60.2061C41.846 59.5065 40.0546 58.746 38.0747 58.4024H37.8657C37.722 58.3991 37.5794 58.4269 37.4475 58.4837L37.25 58.5766C35.5629 59.6408 35.4574 55.1381 34 56.5C32.5333 55.1324 31.1935 56.0741 29.5 55C29.3391 54.9077 29.1614 54.8485 28.9773 54.8258H28.8612C28.7919 54.8143 28.7213 54.8143 28.6521 54.8258C26.6702 55.1544 25.8806 52.2935 24 53C23.1616 51.1718 21.918 53.6056 20.7551 51.9646C20.5915 51.7308 20.3476 51.5654 20.0698 51.5C18.1123 51.0571 17.9495 49.2063 15.9436 49.1393C15.8813 47.1497 14.3968 47.9405 13.9646 45.9973C17.2123 45.312 13.7338 45.4756 13.5 45.312C11.863 44.1363 13.1342 43.3417 11.3024 42.5011C12.0059 40.6187 9.91668 39.2256 10.2563 37.2449C10.262 37.1831 10.262 37.1209 10.2563 37.0591C10.2595 36.9155 10.2318 36.7728 10.1749 36.6409C10.1488 36.5729 10.1177 36.507 10.082 36.4435C9.01283 34.7423 11.4468 33.499 10.082 32.0244C11.4523 30.5599 9.67293 28.551 10.7441 26.8554C10.8364 26.6945 10.8956 26.5168 10.9183 26.3327V26.2282C10.9298 26.159 10.9298 26.0884 10.9183 26.0191C10.5882 24.0376 12.0279 24.7618 11.3229 22.8807C13.1534 22.0468 12.8617 20.6671 14.5 19.5C14.7338 19.3364 14.8992 19.0924 14.9646 18.8147C15.4075 16.8571 16.433 18.0059 16.5 16C18.49 15.9339 17.8031 14.688 19.7459 14.2519C20.0236 14.1865 20.2676 14.0211 20.4312 13.7873C21.607 12.1503 22.1594 13.8318 23 12C24.882 12.7049 24.8917 10.7432 26.8728 11.0813H27.0819C27.2255 11.0846 27.3681 11.0569 27.5 11L27.6975 10.9071C29.3931 9.84045 30.9057 11.5779 32.37 10.2108C33.8368 11.5784 33.8065 8.92594 35.5 10C35.5 10.599 36.8159 9.97728 37 10H37.5C37.5692 10.0115 38.4308 10.0115 38.5 10C40.4822 9.67283 39.1198 11.208 41 10.5C41.8339 12.3305 41.8329 9.36166 43 11C43.1636 11.2338 44.7223 11.4346 45 11.5C46.9576 11.9429 45.1479 14.433 47.1538 14.5C47.2161 16.4896 52.0678 15.5569 52.5 17.5C51.1756 19.1226 53.7662 19.3364 54 19.5C55.6379 20.6677 52.9582 24.3729 54.789 25.2061C54.0895 27.0898 58.7798 24.8988 58.4362 26.8787C58.4305 26.9405 58.4305 27.0027 58.4362 27.0645C58.4368 27.2871 58.5013 27.5048 58.6221 27.6917C59.6823 29.3996 60.9036 31.0021 62.2693 32.4772C60.9016 33.9439 59.6729 35.5343 58.5988 37.2278Z" fill="white"/>
<path d="M32.37 9.48241C27.7755 9.48241 23.2841 10.8448 19.4639 13.3974C15.6436 15.95 12.6661 19.5781 10.9079 23.823C9.14962 28.0678 8.68957 32.7386 9.58593 37.2449C10.4823 41.7512 12.6948 45.8904 15.9436 49.1393C19.1924 52.3881 23.3317 54.6006 27.838 55.497C32.3443 56.3933 39.4849 61.9644 43.7297 60.2061C47.1538 56.451 47.6225 53.4892 53.5346 53.524C56.0872 49.7038 56.4965 45.7314 62.2693 32.4772C62.2693 26.3161 54.8566 18.8566 50.5 14.5C46.1434 10.1434 38.5311 9.48241 32.37 9.48241ZM32.37 53.6203C28.2349 53.6203 24.1927 52.3941 20.7545 50.0968C17.3163 47.7994 14.6365 44.5341 13.0541 40.7138C11.4717 36.8935 11.0576 32.6897 11.8643 28.634C12.6711 24.5784 14.6623 20.853 17.5862 17.9291C20.5102 15.0051 24.2356 13.0139 28.2912 12.2072C32.3468 11.4005 36.5506 11.8145 40.3709 13.3969C44.1913 14.9794 47.4566 17.6591 49.7539 21.0973C52.0512 24.5355 53.2774 28.5778 53.2774 32.7129C53.2774 38.2579 51.0747 43.5757 47.1538 47.4966C43.2329 51.4175 37.915 53.6203 32.37 53.6203Z" fill="white"/>
<path d="M40.3862 20.1186C40.277 19.9875 40.1402 19.882 39.9856 19.8098C39.831 19.7375 39.6624 19.7002 39.4918 19.7004H25.5535C25.2722 19.71 25.0039 19.8215 24.7985 20.0141C24.7474 20.0423 24.7005 20.0774 24.6591 20.1186L18.8515 27.0877C18.6941 27.2779 18.6013 27.5133 18.5867 27.7597C18.5721 28.0062 18.6363 28.2509 18.7702 28.4583L31.547 48.2042C31.6523 48.3672 31.7967 48.5013 31.9672 48.5941C32.1376 48.6869 32.3286 48.7355 32.5227 48.7355C32.7167 48.7355 32.9077 48.6869 33.0781 48.5941C33.2486 48.5013 33.393 48.3672 33.4983 48.2042L46.2751 28.4583C46.409 28.2509 46.4732 28.0062 46.4586 27.7597C46.444 27.5133 46.3512 27.2779 46.1938 27.0877L40.3862 20.1186ZM25.1121 23.185L26.2737 26.6696H22.2316L25.1121 23.185ZM35.7052 28.9926L32.5227 42.5011L29.3401 28.9926H35.7052ZM30.0486 26.6696L32.5227 22.9527L34.9967 26.6696H30.0486ZM36.8203 25.2061L34.6947 22.0235H37.8773L36.8203 25.2061ZM28.225 25.2061L27.168 22.0235H30.3506L28.225 25.2061ZM26.959 28.9926L29.8511 41.3164L21.8831 28.9926H26.959ZM38.0863 28.9926H43.1622L35.1942 41.3164L38.0863 28.9926ZM38.7833 26.6696L39.9448 23.185L42.8254 26.6696H38.7833Z" fill="white"/>
</svg>
