<svg width="69" height="69" viewBox="0 0 69 69" fill="none" xmlns="http://www.w3.org/2000/svg">
<g clip-path="url(#clip0_1_190)">
<path d="M55.1233 19.2734L48.7933 12.9434C47.6064 11.7565 45.7413 11.7565 44.6109 12.8869C43.4806 14.0172 43.5371 15.8823 44.6675 17.0692L45.7413 18.1431L42.1807 21.7037L43.5936 23.1167L48.5672 18.1431L46.0804 15.6563C45.6848 15.2606 45.6848 14.6389 46.0239 14.2998C46.363 13.9607 46.9847 13.9607 47.3803 14.3563L53.5973 20.6864C53.993 21.082 53.993 21.7037 53.6539 22.0428C53.3148 22.3819 52.6931 22.3819 52.2974 21.9863L49.8106 19.4995L44.8935 24.4166L46.3065 25.8295L49.9237 22.3254L50.9975 23.3992C52.1844 24.5861 54.0495 24.5861 55.1799 23.4558C56.3102 22.3254 56.2537 20.4038 55.1233 19.2734Z" fill="white"/>
<path d="M49.5281 27.6381L40.4852 18.5952C39.8635 17.9735 39.0157 17.6344 38.1679 17.6344C37.2636 17.6344 36.4724 17.9735 35.8507 18.5952C34.7203 19.7256 34.6073 21.5342 35.5681 22.8341L18.4431 39.9591V40.3547C18.4431 40.5243 18.4431 43.5197 19.0648 45.724L12.6782 52.1105C11.7739 52.9583 11.7739 54.3713 12.6782 55.2755C13.0738 55.7277 13.639 55.9538 14.2607 55.9538C14.8824 55.9538 15.4476 55.7277 15.8998 55.2755L22.2863 48.889C24.4905 49.5672 27.5425 49.6237 27.7121 49.6237H28.1077L45.2327 32.4987C45.7979 32.9508 46.4761 33.1769 47.2108 33.1769C48.1151 33.1769 48.9064 32.8378 49.5281 32.2161C50.7715 30.9727 50.7715 28.8815 49.5281 27.6381ZM48.0586 30.8031C47.6065 31.3118 46.7587 31.3118 46.25 30.8031L45.1762 29.7293L27.2599 47.6456C26.2991 47.5891 23.8123 47.4195 22.2863 46.8543L21.7211 46.6283L14.4303 53.9191C14.3172 54.0321 14.1477 54.0321 14.0347 53.9191C13.9216 53.8061 13.9216 53.6365 14.0347 53.5235L21.3255 46.2326L21.0994 45.6674C20.5908 44.1414 20.4777 41.7112 20.4212 40.7504L38.281 22.8341L37.2071 21.7602C36.6985 21.2516 36.6985 20.4603 37.2071 19.9516C37.6593 19.443 38.507 19.443 39.0157 19.9516L48.0586 28.9946C48.5673 29.5032 48.5673 30.2945 48.0586 30.8031Z" fill="white"/>
<path d="M33.0812 30.1815L22.1167 41.0895C22.1167 41.0895 22.1167 43.1241 22.5688 44.311C22.7949 45.2718 23.5862 45.3849 23.5862 45.3849C24.7731 45.837 26.8642 45.8935 26.8642 45.8935L37.8288 34.929L33.0812 30.1815ZM42.2207 23.1143L43.6195 21.7155L46.337 24.433L44.9382 25.8318L42.2207 23.1143Z" fill="white"/>
</g>
<path d="M11.1167 12.43L56.5468 56.4622M34.5 67C16.5507 67 2 52.4493 2 34.5C2 16.5507 16.5507 2 34.5 2C52.4493 2 67 16.5507 67 34.5C67 52.4493 52.4493 67 34.5 67Z" stroke="white" stroke-width="3"/>
<defs>
<clipPath id="clip0_1_190">
<rect width="44" height="44" fill="white" transform="translate(12 12)"/>
</clipPath>
</defs>
</svg>
