<svg width="73" height="65" viewBox="0 0 73 65" fill="none" xmlns="http://www.w3.org/2000/svg">
<path d="M54.7741 7.22222C54.6171 7.22222 54.4605 7.22448 54.3159 7.22824C48.2722 7.3292 44.1561 9.40409 41.1253 12.1079V3.61111C41.1253 3.38758 41.0629 3.16848 40.9449 2.97833C40.827 2.78819 40.6582 2.63452 40.4576 2.53455C39.9369 2.27515 35.2944 0 32.6688 0C31.0752 0 29.0614 0.312211 27.1142 0.61404C25.2104 0.909097 23.2394 1.21378 21.8049 1.2037C20.5389 1.19453 18.5431 0.901725 16.6134 0.618553C14.5403 0.314468 12.3965 0 10.9233 0C8.29767 0 3.65531 2.27515 3.13447 2.53455C2.93382 2.63452 2.76507 2.78819 2.64713 2.97833C2.52919 3.16848 2.46671 3.38758 2.46671 3.61111V22.8704C2.46671 23.0755 2.51934 23.2773 2.6196 23.4565C2.71986 23.6356 2.86442 23.7863 3.03956 23.8942C3.21469 24.0021 3.41459 24.0636 3.62028 24.0728C3.82597 24.0821 4.03062 24.0388 4.2148 23.9471C5.48933 23.3127 9.17866 21.6667 10.9233 21.6667C12.2197 21.6667 14.2744 21.9676 16.2613 22.2596C18.3657 22.5684 20.3537 22.8598 21.7871 22.8704C23.4218 22.8842 25.4869 22.5618 27.4855 22.2521C29.3422 21.9643 31.262 21.6667 32.6688 21.6667C33.0335 21.6765 33.3961 21.7245 33.7508 21.8098C33.0161 22.877 32.3116 23.7592 31.5741 24.3225C29.6531 25.7894 26.4068 26.5167 21.9123 26.483C21.8166 26.483 21.7346 26.4816 21.6675 26.4816C17.7412 26.4816 14.5475 29.7216 14.5475 33.7039V38.5187C14.5372 39.458 14.7348 40.388 15.1263 41.2425C15.5178 42.0971 16.0936 42.8551 16.8127 43.4626C15.7912 43.6587 14.8238 44.071 13.976 44.6717C13.1282 45.2724 12.4198 46.0474 11.8985 46.9444H9.34643L6.03055 43.2375L6.00956 43.2146C5.69321 42.8726 5.30915 42.5995 4.88159 42.4128C4.45403 42.2261 3.99227 42.1297 3.52544 42.1297C3.05861 42.1297 2.59684 42.2261 2.16929 42.4128C1.74173 42.5995 1.35766 42.8726 1.04132 43.2146C0.417047 43.8957 0.066853 44.7822 0.0577973 45.7045C0.0487416 46.6268 0.381461 47.5201 0.99224 48.2132L2.75936 50.5556L0.992542 52.8978C0.381741 53.5909 0.0490233 54.4842 0.0581069 55.4065C0.0671905 56.3289 0.417437 57.2155 1.04177 57.8965C1.35812 58.2386 1.74218 58.5116 2.16974 58.6983C2.5973 58.8851 3.05906 58.9815 3.52589 58.9815C3.99272 58.9815 4.45448 58.8851 4.88204 58.6983C5.3096 58.5116 5.69367 58.2386 6.01001 57.8965L6.031 57.8736L9.34658 54.1667H11.8987C12.5346 55.2638 13.449 56.175 14.5501 56.8088C15.6512 57.4427 16.9002 57.7768 18.1718 57.7778C20.6515 57.7778 23.5841 59.2492 26.6888 60.8068C30.6067 62.7722 35.0472 65 39.9173 65C42.0287 64.9996 44.1146 64.5398 46.0291 63.6527C47.9436 62.7656 49.6406 61.4725 51.0014 59.8639C52.3621 58.2553 53.3539 56.37 53.9073 54.3398C54.4608 52.3096 54.5625 50.1834 54.2054 48.1099C65.723 47.6158 72.5355 42.3102 72.5355 33.7037V25.2778C72.5355 15.3219 64.5677 7.22222 54.7741 7.22222ZM10.9233 2.40741C12.2197 2.40741 14.2744 2.70833 16.2613 3.00038C18.3657 3.30913 20.3537 3.60058 21.7871 3.61111C23.4218 3.62495 25.4869 3.30251 27.4855 2.99286C29.3422 2.70502 31.262 2.40741 32.6688 2.40741C34.1683 2.40741 37.1045 3.6236 38.7092 4.36794V8.94909C36.9839 8.20219 34.3919 7.22222 32.6688 7.22222C31.0752 7.22222 29.0614 7.53443 27.1142 7.83626C25.2104 8.13132 23.2394 8.43947 21.8049 8.42593C20.5389 8.41675 18.5431 8.12395 16.6134 7.84078C14.5403 7.53669 12.3965 7.22222 10.9233 7.22222C9.2001 7.22222 6.60816 8.20219 4.88287 8.94924V4.36794C6.48751 3.6236 9.42375 2.40741 10.9233 2.40741ZM27.1142 19.8733C25.2104 20.1684 23.2394 20.4752 21.8049 20.463C20.5389 20.4538 18.5431 20.161 16.6134 19.8778C14.5403 19.5737 12.3965 19.2593 10.9233 19.2593C9.2001 19.2593 6.60816 20.2392 4.88287 20.9861V16.4051C6.4872 15.6608 9.42345 14.4444 10.9233 14.4444C12.2197 14.4444 14.2744 14.7454 16.2613 15.0374C18.3657 15.3462 20.3537 15.6376 21.7871 15.6481C23.4218 15.6614 25.4869 15.3397 27.4855 15.0299C29.3422 14.7421 31.262 14.4444 32.6688 14.4444C33.8843 14.4444 36.0432 15.2434 37.6723 15.9426C36.722 17.2167 35.9005 18.4969 35.1437 19.6803C34.152 19.3983 33.3386 19.259 32.6688 19.259C31.0752 19.2593 29.0614 19.5715 27.1142 19.8733ZM21.6675 28.8889C21.7296 28.8889 21.8055 28.8889 21.894 28.8901C26.9307 28.925 30.6856 28.0335 33.0434 26.2332C34.5564 25.0781 35.7528 23.207 37.1384 21.0404C40.3398 16.0339 44.325 9.80296 54.3676 9.63535C54.5026 9.63194 54.638 9.63013 54.7738 9.62993C63.2355 9.62963 70.1193 16.6493 70.1193 25.2778C70.1193 29.5875 68.4697 33.5081 65.4743 36.3174C62.2597 39.3324 57.7419 40.9259 52.4094 40.9259H50.7125C49.3552 39.4108 47.6918 38.1986 45.8314 37.3688C43.971 36.5391 41.9556 36.1105 39.9173 36.1111C35.4776 36.1111 31.3962 37.9618 27.7416 39.778C25.8469 39.4621 23.9544 39.0618 21.9665 38.556C17.613 37.4481 16.9637 35.0403 16.9637 33.7037C16.9637 31.0488 19.0738 28.8889 21.6675 28.8889ZM20.6255 42.943C18.9395 42.2842 17.1019 41.0472 16.9711 38.7773C18.0886 39.7102 19.5685 40.4303 21.3681 40.8885C22.2957 41.1247 23.2277 41.3435 24.1636 41.5448C23.0228 42.1025 21.8398 42.57 20.6255 42.943ZM39.9173 62.5926C35.6212 62.5926 31.6328 60.5914 27.776 58.6566C24.4073 56.9666 21.2255 55.3704 18.1718 55.3704C16.8902 55.3704 15.661 54.8631 14.7548 53.9601C13.8486 53.0572 13.3394 51.8325 13.3394 50.5556C13.3394 49.2786 13.8486 48.0539 14.7548 47.151C15.661 46.248 16.8902 45.7407 18.1718 45.7407C21.2255 45.7407 24.4073 44.1445 27.776 42.4545C31.6328 40.5197 35.6212 38.5185 39.9173 38.5185C43.1213 38.5185 46.1941 39.7867 48.4597 42.0441C50.7253 44.3015 51.9981 47.3631 51.9981 50.5556C51.9981 53.748 50.7253 56.8096 48.4597 59.067C46.1941 61.3244 43.1213 62.5926 39.9173 62.5926ZM53.579 45.7239C53.2828 44.8949 52.9109 44.0947 52.4679 43.3333C58.4026 43.3214 63.4712 41.5027 67.131 38.0709C68.2917 36.9828 69.2921 35.7367 70.1027 34.3695C69.7484 41.345 63.7891 45.4364 53.579 45.7239Z" fill="white"/>
<path d="M53.3137 30.7036C54.9862 30.7036 56.6212 30.2094 58.0119 29.2836C59.4026 28.3577 60.4865 27.0417 61.1265 25.5021C61.7666 23.9625 61.9341 22.2683 61.6078 20.6338C61.2815 18.9994 60.4761 17.498 59.2934 16.3196C58.1107 15.1412 56.6039 14.3387 54.9635 14.0136C53.3231 13.6885 51.6227 13.8554 50.0775 14.4931C48.5322 15.1308 47.2115 16.2108 46.2823 17.5965C45.3531 18.9821 44.8571 20.6112 44.8571 22.2776C44.8596 24.5116 45.7514 26.6533 47.3368 28.2329C48.9221 29.8125 51.0716 30.7011 53.3137 30.7036Z" fill="white"/>
</svg>
