<svg width="66" height="66" viewBox="0 0 66 66" fill="none" xmlns="http://www.w3.org/2000/svg">
<path d="M62.9609 40.5641H56.6706V37.4176C56.6706 35.6829 55.2595 34.2712 53.5255 34.2712H43.0416C42.1379 34.2712 41.3275 34.6603 40.753 35.2728L29.4126 33.3828V30.7545C32.541 28.9379 34.6545 25.5576 34.6545 21.6854H35.7029C37.4369 21.6854 38.848 20.2737 38.848 18.5389C38.848 16.8042 37.4369 15.3925 35.7029 15.3925H35.1997L35.7742 14.0594C36.305 12.8247 36.5352 11.4816 36.4459 10.1405C36.3566 8.79944 35.9503 7.49873 35.2605 6.34539C34.3801 4.87211 33.071 3.70297 31.5083 2.99443L28.5822 1.66138C25.1278 0.0881569 20.8934 0.548587 17.8562 2.82557L16.2029 4.06527L16.205 4.06841C14.5478 4.49941 13.1246 5.56114 12.2389 7.02712C11.6713 7.96857 11.3515 9.0386 11.3093 10.1372C11.2671 11.2359 11.504 12.3273 11.9978 13.3095L13.0389 15.3925H12.6384C10.9043 15.3925 9.49322 16.8042 9.49322 18.5389C9.49322 20.2737 10.9043 21.6854 12.6384 21.6854H13.6868C13.6868 25.5576 15.8003 28.9379 18.9287 30.7545V33.3828L6.18975 35.5067C4.47419 35.788 2.91486 36.6714 1.79121 37.9985C0.667553 39.3256 0.0530206 41.0096 0.0577378 42.7487V64.6868C0.0577378 64.965 0.168192 65.2318 0.364803 65.4284C0.561414 65.6251 0.828075 65.7356 1.10612 65.7356H62.9609C64.1173 65.7356 65.0577 64.7948 65.0577 63.638V42.6617C65.0577 41.5048 64.1173 40.5641 62.9609 40.5641ZM54.5738 37.4176V40.5641H47.9355C47.3766 38.7853 46.1627 37.2855 44.5397 36.3688H53.5255C54.1031 36.3688 54.5738 36.8387 54.5738 37.4176ZM41.9932 37.6221C42.7974 37.7879 43.5514 38.1405 44.1943 38.6516C44.8372 39.1626 45.3509 39.8178 45.694 40.5641H41.9932V37.6221ZM36.7513 18.5389C36.7513 19.1168 36.2805 19.5877 35.7029 19.5877H34.6545V17.4901H35.7029C36.2805 17.4901 36.7513 17.961 36.7513 18.5389ZM12.6384 19.5877C12.0607 19.5877 11.59 19.1168 11.59 18.5389C11.59 17.961 12.0607 17.4901 12.6384 17.4901H13.6868V19.5877H12.6384ZM15.7835 21.6854V15.64L17.2072 12.7904L17.8803 13.2948C19.6835 14.6478 21.9176 15.3925 24.1706 15.3925C26.4236 15.3925 28.6577 14.6478 30.461 13.2948L31.134 12.7904L32.5577 15.64V21.6854C32.5577 26.3117 28.7951 30.0759 24.1706 30.0759C19.5462 30.0759 15.7835 26.3117 15.7835 21.6854ZM24.1706 32.1735C25.2376 32.1742 26.2983 32.0111 27.3158 31.69V33.8369L24.1706 36.9834L21.0255 33.8369V31.69C22.043 32.0111 23.1037 32.1742 24.1706 32.1735ZM23.832 43.7105H24.5093L26.2202 47.9897L24.1706 56.8763L22.121 47.9897L23.832 43.7105ZM12.6384 63.638V45.8081H10.5416V63.638H2.15451V42.7487C2.1513 41.5064 2.5903 40.3035 3.3929 39.3555C4.19549 38.4075 5.30925 37.7763 6.53467 37.5749L19.6175 35.3944L20.8745 36.652L20.0306 39.1838C19.9798 39.3353 19.9645 39.4965 19.9857 39.6548C20.007 39.8132 20.0643 39.9646 20.1532 40.0973L21.9439 42.7844L20.0515 47.5167C19.9724 47.7153 19.9556 47.9333 20.0033 48.1417L23.1485 61.7763C23.2012 62.0081 23.3311 62.215 23.5168 62.3632C23.7025 62.5114 23.9331 62.5921 24.1706 62.5921C24.4082 62.5921 24.6387 62.5114 24.8244 62.3632C25.0101 62.215 25.14 62.0081 25.1928 61.7763L28.338 48.1417C28.3851 47.9341 28.3694 47.7159 28.2897 47.5167L26.3974 42.7844L28.188 40.0973C28.3673 39.8278 28.4124 39.4911 28.3107 39.1838L27.4668 36.652L28.7238 35.3944L39.9122 37.2592C39.9101 37.3127 39.8964 37.3631 39.8964 37.4176V40.5641H33.6061C32.4497 40.5641 31.5093 41.5048 31.5093 42.6617V63.638H12.6384ZM33.6061 63.638V61.5404H62.962V63.638H33.6061ZM62.962 59.4427H33.6061V50.9358C34.2876 51.6366 35.1026 52.1937 36.0029 52.574C36.9033 52.9543 37.8707 53.1501 38.848 53.1498H45.1384V54.1987C45.1384 55.9334 46.5495 57.3451 48.2835 57.3451C50.0176 57.3451 51.4287 55.9334 51.4287 54.1987V53.1498H57.719C58.6964 53.1498 59.664 52.9539 60.5645 52.5736C61.4649 52.1933 62.2802 51.6364 62.962 50.9358V59.4427ZM62.9609 45.8081C62.9609 48.6997 60.6094 51.0522 57.719 51.0522H51.4287V47.9058C51.4287 47.6276 51.3182 47.3608 51.1216 47.1641C50.925 46.9674 50.6584 46.8569 50.3803 46.8569H46.1868C45.9087 46.8569 45.642 46.9674 45.4454 47.1641C45.2488 47.3608 45.1384 47.6276 45.1384 47.9058V51.0522H38.848C35.9576 51.0522 33.6061 48.6997 33.6061 45.8081V42.6617H62.9609V45.8081Z" fill="white"/>
</svg>
