<svg aria-hidden="true" style="position: absolute; width: 0; height: 0; overflow: hidden;" version="1.1" xmlns="http://www.w3.org/2000/svg" xmlns:xlink="http://www.w3.org/1999/xlink">
<defs>
<symbol id="icon-chicken-with-egg" viewBox="0 0 28 32">
<path fill="#fff" style="fill: var(--color1, #fff)" d="M15.381 11.786c-0.335-0.318-0.779-0.495-1.241-0.495s-0.906 0.177-1.241 0.495l-1.178 1.175c-0.076 0.076-0.127 0.174-0.144 0.28s-0.001 0.215 0.047 0.311l0.568 1.133c0.181 0.361 0.459 0.664 0.803 0.876s0.74 0.324 1.145 0.324 0.801-0.112 1.145-0.324c0.344-0.212 0.622-0.515 0.803-0.876l0.571-1.133c0.048-0.096 0.065-0.205 0.047-0.311s-0.068-0.204-0.144-0.28l-1.18-1.175zM14.653 12.511l0.537 0.535-1.050 0.262-1.050-0.262 0.537-0.535c0.138-0.132 0.322-0.206 0.514-0.206s0.376 0.074 0.514 0.206zM14.14 14.861c-0.214 0.001-0.423-0.058-0.605-0.17s-0.328-0.272-0.423-0.463l-0.068-0.137 0.971 0.242c0.082 0.020 0.168 0.020 0.25 0l0.971-0.242-0.068 0.137c-0.095 0.191-0.241 0.351-0.423 0.463s-0.391 0.171-0.605 0.17z"></path>
<path fill="#fff" style="fill: var(--color1, #fff)" d="M26.294 12.324l-5.448 1.018c0.625-1.594 0.652-3.359 0.077-4.971l2.91 1.583c0.095 0.052 0.204 0.072 0.311 0.059s0.208-0.061 0.287-0.135c0.079-0.074 0.133-0.171 0.153-0.277s0.007-0.216-0.039-0.314c-2.716-5.816-6.603-9.288-10.406-9.288s-7.69 3.472-10.406 9.289c-0.046 0.098-0.059 0.208-0.039 0.314s0.074 0.203 0.153 0.277c0.079 0.074 0.179 0.121 0.287 0.135s0.216-0.007 0.311-0.059l2.909-1.583c-0.575 1.612-0.548 3.377 0.077 4.971l-5.448-1.019c-0.088-0.017-0.178-0.025-0.267-0.026-0.386 0.001-0.755 0.153-1.028 0.425s-0.426 0.64-0.427 1.025c0 0.482 0.126 0.956 0.366 1.374 1.149 2.003 2.846 3.639 4.894 4.714-0.079 0.386-0.119 0.779-0.12 1.172 0 2.902 2.113 5.402 5.139 6.53v0.84l-2.799 1.395 0.459 0.917 1.705-0.85-0.853 1.7 0.92 0.458 0.835-1.664 0.257 1.52 1.013-0.168-0.509-3.034v-0.788c1.687 0.424 3.453 0.424 5.139 0v0.788l-0.507 3.033 1.013 0.168 0.257-1.52 0.829 1.665 0.92-0.458-0.853-1.7 1.707 0.853 0.459-0.917-2.799-1.398v-0.84c3.026-1.127 5.139-3.628 5.139-6.53-0.001-0.394-0.041-0.786-0.12-1.172 2.047-1.076 3.745-2.711 4.894-4.714 0.24-0.419 0.366-0.893 0.366-1.375-0.003-0.212-0.051-0.421-0.143-0.613s-0.224-0.361-0.388-0.496-0.355-0.234-0.561-0.288c-0.206-0.055-0.421-0.064-0.63-0.027zM14.14 16.91c-1.044 0.001-2.070-0.263-2.984-0.766s-1.684-1.229-2.239-2.111c-0.555-0.881-0.877-1.889-0.935-2.928s0.15-2.076 0.604-3.013l2.076 2.484c0.046 0.055 0.102 0.099 0.166 0.131s0.134 0.050 0.205 0.053c0.071 0.004 0.143-0.007 0.21-0.033s0.127-0.066 0.177-0.117l2.72-2.712 2.72 2.712c0.096 0.096 0.227 0.15 0.363 0.15h0.023c0.071-0.003 0.141-0.021 0.205-0.053s0.121-0.076 0.166-0.131l2.076-2.484c0.454 0.937 0.661 1.974 0.603 3.013s-0.38 2.046-0.935 2.927c-0.555 0.881-1.325 1.607-2.239 2.11s-1.94 0.767-2.984 0.766zM4.837 18.229c0.223-0.364 0.404-0.752 0.54-1.157l-0.976-0.324c-0.102 0.293-0.233 0.575-0.391 0.842-0.363-0.304-0.707-0.631-1.028-0.979 0.293-0.293 0.558-0.613 0.792-0.955l-0.855-0.569c-0.177 0.259-0.375 0.504-0.593 0.731-0.294-0.384-0.563-0.786-0.804-1.205-0.151-0.264-0.231-0.562-0.231-0.866 0.002-0.062 0.017-0.123 0.045-0.178s0.066-0.105 0.114-0.144 0.103-0.068 0.163-0.085c0.060-0.017 0.122-0.020 0.184-0.011l6.209 1.161c0.198 0.325 0.421 0.633 0.668 0.922-1.286 0.815-2.285 2.009-2.86 3.416-0.336-0.183-0.661-0.384-0.976-0.601zM14.14 27.159c-4.251 0-7.709-2.758-7.709-6.149 0-1.896 1.117-3.682 2.99-4.846 1.305 1.142 2.982 1.772 4.719 1.772s3.414-0.63 4.719-1.772c1.873 1.164 2.99 2.95 2.99 4.846 0 3.391-3.458 6.149-7.709 6.149zM26.757 14.615c-0.242 0.418-0.511 0.821-0.804 1.205-0.217-0.227-0.416-0.471-0.593-0.731l-0.855 0.569c0.234 0.342 0.5 0.661 0.792 0.955-0.321 0.348-0.665 0.675-1.028 0.979-0.158-0.267-0.289-0.549-0.391-0.842l-0.976 0.324c0.136 0.405 0.317 0.793 0.54 1.157-0.315 0.217-0.641 0.417-0.976 0.601-0.574-1.407-1.573-2.601-2.858-3.416 0.247-0.289 0.47-0.598 0.668-0.922l6.208-1.16c0.061-0.010 0.124-0.007 0.184 0.009s0.116 0.045 0.164 0.085c0.048 0.040 0.087 0.089 0.114 0.145s0.042 0.117 0.043 0.179c-0 0.304-0.080 0.602-0.231 0.866z"></path>
</symbol>
<symbol id="icon-chiken" viewBox="0 0 30 32">
<path fill="#fff" style="fill: var(--color1, #fff)" d="M8.006 0.001c-0.596 0.084-0.966 0.527-1.302 0.82-0.119-0.49-0.379-0.804-0.888-0.81-0.778 0.041-1.101 0.591-1.413 1.16-0.472-0.324-0.906-0.173-1.282 0.21-0.309 0.412-0.386 0.909-0.444 1.37-0.529 0.149-0.988 0.527-1.12 1.020-0.107 0.422 0.012 0.796 0.192 1.16-0.557 0.39-1.067 0.857-1.554 1.34-0.184 0.177-0.246 0.467-0.149 0.702s0.347 0.4 0.603 0.398c0.727 0 1.076 0.069 1.403 0.15-0.208 0.533-0.434 1.115-0.434 1.77 0.043 1.641 1.212 2.286 2.574 2.47-0.011 0.584-0.175 1.14-0.464 1.84-0.362 0.877-0.817 1.956-0.817 3.369 0 1.992 1.048 4.248 2.715 6.069 0.777 0.848 1.704 1.596 2.735 2.16l-0.484 0.6c-1.198-0.526-2.377-0.849-3.512-1.13-0.292-0.076-0.628 0.083-0.753 0.355s-0.023 0.627 0.228 0.794c0.682 0.45 1.348 0.924 1.998 1.46-0.703 0.26-1.332 0.55-1.998 0.99-0.268 0.159-0.386 0.528-0.258 0.811s0.484 0.442 0.782 0.349c1.276-0.316 2.159-0.593 3.29-0.61 0.638 0.171 1.287 0.785 2.553 2.040 0.179 0.176 0.468 0.232 0.701 0.136s0.397-0.337 0.399-0.586c0-0.843-0.363-1.578-0.787-2.27 0.237-0.066 0.425-0.277 0.463-0.517s-0.077-0.498-0.282-0.633l-0.454-0.3 0.373-0.63c0.535 0.118 1.087 0.19 1.655 0.19 1.303 0 2.722-0.092 4.128-0.33l-0.202 1.98c-1.412 0.070-2.637 0.331-3.764 0.61-0.302 0.077-0.519 0.395-0.48 0.7s0.33 0.56 0.642 0.559c0.938 0 1.793 0.042 2.533 0.15-0.183 0.314-0.377 0.68-0.565 1.24-0.095 0.272 0.022 0.601 0.269 0.753s0.597 0.111 0.801-0.094c0.862-0.854 1.211-1.177 1.928-1.67 1.106 0.286 2.023 0.568 2.907 0.86 0.273 0.087 0.598-0.033 0.748-0.275s0.11-0.583-0.092-0.785c-0.467-0.463-1.080-0.874-1.736-1.23 0.014-0.009 0.016-0.011 0.030-0.020 0.227-0.152 0.336-0.458 0.255-0.718s-0.344-0.452-0.618-0.452h-0.575l0.212-2.15c0.476-0.148 0.943-0.315 1.393-0.51 2.301-1 4.195-2.759 4.693-5.449 1.031-0.251 2.174-0.338 3.018-0.89 0.123-0.104 0.303-0.293 0.303-0.6 0-0.256-0.114-0.452-0.242-0.61 0.544-0.359 1.026-0.743 1.463-1.17 0.25-0.228 0.338-0.539 0.394-0.78 0-0.293-0.173-0.557-0.323-0.69-0.109-0.097-0.206-0.131-0.303-0.18 0.347-0.388 0.62-0.929 0.626-1.37-0-0.335-0.308-0.64-0.646-0.64h-0.303c0.199-0.36 0.308-0.772 0.384-1.14 0.030-0.261 0.037-0.614-0.273-0.92-0.33-0.259-0.676-0.167-1.029-0.080 0.131-0.381 0.245-0.801 0.313-1.17 0.038-0.279 0.108-0.633-0.252-0.99-0.12-0.115-0.287-0.181-0.454-0.18-0.365 0-0.581 0.116-0.787 0.24-0.101-0.635-0.105-1.319-0.394-1.84-0.187-0.328-0.622-0.64-1.080-0.64-0.372 0-0.618 0.164-0.828 0.34-0.753 0.712-1.323 1.701-1.786 2.49-0.76 1.296-1.549 2.744-2.23 3.809-1.432-0.308-3.306-0.768-5.157-0.58-0.905-1.451-1.807-2.677-2.695-3.849-0.638-1.532-1.588-2.792-2.765-3.999 0.273-0.775 0.609-1.932 0.091-2.51-0.382-0.287-0.854-0.158-1.262-0.080 0.379-0.659 0.049-1.412-0.555-1.39zM8.652 4.68c1.222 1.22 2.107 2.4 2.705 3.879 0.020 0.053 0.047 0.104 0.081 0.15 0.612 0.809 1.215 1.623 1.817 2.5-0.378 0.057-0.648 0.288-0.656 0.72l0.192 1.55-0.959-0.32c-0.39-0.127-0.855 0.213-0.848 0.62v0.29l-1.998-0.89c-0.393-0.173-0.912 0.164-0.908 0.59v0.32l-1.554-1.16c-0.373-0.273-1.004 0.021-1.029 0.48l-0.232-0.19c0.183-0.538 0.304-1.115 0.262-1.75 0.794-0.783 1.126-1.901 0.787-2.909-0.291-0.866-1.078-1.571-2.24-1.93 0.077-0.156 0.131-0.328 0.131-0.54-0-0.1-0.025-0.201-0.071-0.29 0 0-0.169-0.33-0.505-0.68 0.943-0.791 1.778-1.226 2.483-1.28 0.926-0.066 1.948 0.331 2.543 0.84zM6.139 4.81c-0.535 0-0.969 0.358-0.969 0.8s0.434 0.8 0.969 0.8c0.535 0 0.969-0.358 0.969-0.8s-0.434-0.8-0.969-0.8zM5.816 5.449c0.178 0 0.323 0.143 0.323 0.32s-0.145 0.32-0.323 0.32c-0.178 0-0.323-0.143-0.323-0.32s0.145-0.32 0.323-0.32zM25.163 7.129c0.277 0.745 0.164 1.678 0.384 2.36 0.116 0.35 0.577 0.538 0.908 0.37 0.092-0.046 0.157-0.090 0.242-0.14-0.166 0.52-0.393 1.129-0.515 1.67-0.097 0.45 0.436 0.898 0.868 0.73 0.207-0.082 0.404-0.176 0.606-0.27-0.141 0.344-0.317 0.719-0.454 0.99-0.199 0.388 0.136 0.929 0.575 0.93h0.262c-0.119 0.164-0.211 0.319-0.394 0.5-0.274 0.265-0.227 0.778 0.091 0.99 0.174 0.115 0.29 0.147 0.424 0.2-0.511 0.481-1.16 0.922-1.716 1.29-0.371 0.297-0.33 0.74-0.071 1.010-0.766 0.209-1.605 0.366-2.281 0.5-0.264 0.052-0.482 0.285-0.515 0.55-0.294 2.479-1.847 3.947-4.017 4.889s-4.922 1.27-7.287 1.27c-2.192 0-4.22-1.17-5.702-2.79s-2.372-3.682-2.372-5.209c0-0.978 0.264-1.739 0.565-2.489l1.282 1.060c0.199 0.162 0.499 0.188 0.724 0.064s0.36-0.391 0.326-0.644l1.241 0.92c0.19 0.139 0.461 0.162 0.672 0.057s0.355-0.333 0.357-0.567v-0.62l2.018 0.9c0.393 0.173 0.912-0.164 0.908-0.59l-0.010-0.41 1.080 0.36c0.41 0.137 0.897-0.254 0.848-0.68 0.040-0.571 0.059-1.521 0.050-1.57 0.178 0.276 0.427 0.386 0.706 0.36 1.72-0.284 3.907 0.3 5.571 0.63 0.249 0.051 0.524-0.061 0.666-0.27 0.789-1.172 1.673-2.848 2.483-4.229 0.467-0.755 0.871-1.501 1.474-2.12h-0zM10.842 16.248c-1.362 0.846-1.803 2.473-1.585 3.649 0.292 1.4 1.48 2.706 3.411 2.98 1.885 0.096 3.572-0.237 5.066-0.68 0.794-0.241 1.498-0.524 2.039-0.88 0.551-0.384 1.024-0.999 0.878-1.63-0.234-0.646-0.737-0.887-1.322-1.030-1.143-0.142-2.207 0.074-3.31 0.1-0.463 0.009-0.803-0.094-0.797-0.090-0.264-0.174-0.9-0.981-1.585-1.66-0.342-0.339-0.716-0.658-1.191-0.85-0.562-0.189-1.094-0.182-1.605 0.090z"></path>
</symbol>
<symbol id="icon-dimond" viewBox="0 0 33 32">
<path fill="#fff" style="fill: var(--color1, #fff)" d="M31.851 15.577c-0.72-0.716-1.362-1.505-1.916-2.356 0.186-1 0.478-1.977 0.869-2.916 0.039-0.103 0.047-0.215 0.024-0.322s-0.077-0.206-0.155-0.284c-0.054-0.053-0.118-0.094-0.189-0.12-0.937-0.392-1.832-0.878-2.67-1.452-0.211-0.994-0.316-2.008-0.314-3.025 0-0.152-0.060-0.297-0.167-0.404s-0.253-0.167-0.404-0.167c-1.017 0.002-2.031-0.104-3.025-0.314-0.579-0.84-1.068-1.739-1.458-2.682-0.058-0.14-0.169-0.251-0.309-0.309s-0.295-0.057-0.435 0c-0.941 0.392-1.92 0.683-2.922 0.869-0.853-0.555-1.644-1.199-2.362-1.921-0.053-0.054-0.117-0.098-0.187-0.127s-0.146-0.045-0.222-0.045c-0.076 0-0.152 0.015-0.222 0.045s-0.134 0.073-0.187 0.127c-0.715 0.718-1.502 1.36-2.35 1.916-1.002-0.185-1.982-0.477-2.922-0.869-0.101-0.038-0.211-0.048-0.318-0.028s-0.206 0.066-0.288 0.137c-0.053 0.054-0.094 0.118-0.12 0.189-0.392 0.937-0.878 1.832-1.452 2.67-0.994 0.211-2.008 0.317-3.025 0.314-0.152 0-0.297 0.060-0.404 0.168s-0.168 0.253-0.168 0.404c0.002 1.017-0.104 2.031-0.314 3.025-0.84 0.579-1.739 1.068-2.682 1.458-0.14 0.058-0.251 0.169-0.309 0.309s-0.057 0.295 0 0.435c0.392 0.941 0.683 1.92 0.869 2.922-0.555 0.853-1.199 1.644-1.921 2.362-0.058 0.051-0.105 0.113-0.139 0.183s-0.052 0.146-0.056 0.223c0.001 0.153 0.060 0.3 0.166 0.412 0.72 0.716 1.362 1.505 1.916 2.356-0.186 1-0.478 1.977-0.869 2.916-0.045 0.107-0.056 0.224-0.033 0.338s0.081 0.217 0.164 0.297c0.054 0.053 0.118 0.094 0.189 0.12 0.937 0.392 1.832 0.878 2.67 1.452 0.211 0.994 0.316 2.008 0.314 3.025 0 0.152 0.060 0.297 0.168 0.404s0.253 0.167 0.404 0.167c1.017-0.002 2.031 0.103 3.025 0.314 0.579 0.84 1.068 1.739 1.458 2.682 0.058 0.139 0.169 0.25 0.308 0.307s0.296 0.058 0.435 0.001c0.941-0.392 1.92-0.683 2.922-0.869 0.853 0.555 1.644 1.199 2.362 1.921 0.054 0.054 0.118 0.096 0.189 0.125s0.146 0.043 0.223 0.041c0.156-0.001 0.306-0.063 0.417-0.172 0.716-0.72 1.505-1.362 2.356-1.916 1 0.186 1.978 0.478 2.916 0.869 0.107 0.040 0.224 0.050 0.336 0.026s0.216-0.078 0.298-0.158c0.053-0.054 0.094-0.118 0.12-0.189 0.392-0.937 0.878-1.832 1.452-2.67 0.994-0.211 2.008-0.316 3.025-0.314 0.152 0 0.297-0.060 0.404-0.167s0.167-0.253 0.167-0.404c-0.002-1.017 0.104-2.031 0.314-3.025 0.84-0.579 1.739-1.068 2.682-1.458 0.14-0.058 0.251-0.169 0.309-0.309s0.057-0.295 0-0.435c-0.392-0.941-0.683-1.92-0.869-2.922 0.555-0.853 1.199-1.644 1.921-2.362 0.054-0.054 0.096-0.118 0.125-0.189s0.043-0.146 0.042-0.222-0.017-0.151-0.048-0.221c-0.031-0.070-0.075-0.133-0.13-0.185zM28.849 18.328c-0.045 0.079-0.075 0.167-0.086 0.257v0.052c-0.006 0.034-0.006 0.069 0 0.103 0.161 0.976-1.298 1.259-0.949 2.184-0.901 0.411-0.045 1.581-0.852 2.156-0.115 0.081-0.197 0.201-0.229 0.337-0.218 0.964-0.344 1.946-0.377 2.933-0.988 0.033-1.97 0.159-2.933 0.377-0.137 0.032-0.257 0.114-0.337 0.229-0.575 0.806-1.146 1.782-1.556 2.684-0.927-0.344-1.809-0.719-2.784-0.888h-0.103c-0.071-0.002-0.141 0.012-0.206 0.040l-0.097 0.046c-0.831 0.524-0.883-1.693-1.6-1.022-0.722-0.673-1.382-0.21-2.215-0.738-0.079-0.045-0.167-0.075-0.257-0.086h-0.057c-0.034-0.006-0.069-0.006-0.103 0-0.976 0.162-1.364-1.247-2.29-0.899-0.413-0.9-1.025 0.298-1.598-0.51-0.081-0.115-0.201-0.197-0.337-0.229-0.964-0.218-1.044-1.129-2.031-1.162-0.031-0.98-0.761-0.59-0.974-1.547 1.599-0.337-0.114-0.257-0.229-0.337-0.806-0.579-0.18-0.97-1.082-1.384 0.346-0.927-0.682-1.613-0.515-2.588 0.003-0.030 0.003-0.061 0-0.091 0.002-0.071-0.012-0.141-0.040-0.206-0.013-0.033-0.028-0.066-0.046-0.097-0.526-0.837 0.672-1.45 0-2.176 0.675-0.721-0.201-1.71 0.326-2.545 0.045-0.079 0.075-0.167 0.086-0.257v-0.051c0.006-0.034 0.006-0.069 0-0.103-0.162-0.976 0.546-0.619 0.199-1.545 0.901-0.411 0.758-1.090 1.564-1.664 0.115-0.081 0.197-0.201 0.229-0.337 0.218-0.964 0.723-0.398 0.756-1.386 0.98-0.033 0.642-0.646 1.598-0.861 0.137-0.032 0.257-0.114 0.337-0.229 0.579-0.806 0.851 0.022 1.265-0.88 0.927 0.347 0.931-0.619 1.907-0.452h0.103c0.071 0.002 0.141-0.012 0.206-0.040l0.097-0.046c0.835-0.525 1.579 0.33 2.3-0.343 0.722 0.673 0.707-0.633 1.541-0.104 0 0.295 0.648-0.011 0.738 0h0.246c0.034 0.006 0.458 0.006 0.492 0 0.976-0.161 0.305 0.595 1.231 0.246 0.411 0.901 0.41-0.56 0.985 0.246 0.081 0.115 0.848 0.214 0.985 0.246 0.964 0.218 0.073 1.444 1.060 1.477 0.031 0.98 2.419 0.52 2.632 1.477-0.652 0.799 0.623 0.904 0.738 0.985 0.806 0.575-0.513 2.399 0.388 2.809-0.344 0.927 1.965-0.151 1.796 0.823-0.003 0.030-0.003 0.061 0 0.091 0 0.11 0.032 0.217 0.092 0.309 0.522 0.841 1.123 1.63 1.796 2.356-0.673 0.722-1.278 1.505-1.807 2.339z"></path>
<path fill="#fff" style="fill: var(--color1, #fff)" d="M15.936 4.668c-2.262 0-4.473 0.671-6.354 1.927s-3.347 3.043-4.212 5.133c-0.866 2.090-1.092 4.389-0.651 6.608s1.531 4.256 3.13 5.856c1.599 1.599 3.637 2.689 5.856 3.13s5.734 3.184 7.824 2.318c1.686-1.849 1.916-3.307 4.827-3.29 1.257-1.881 1.458-3.836 4.3-10.361 0-3.033-3.649-6.706-5.794-8.85s-5.892-2.47-8.926-2.47zM15.936 26.398c-2.036 0-4.026-0.604-5.718-1.735s-3.012-2.739-3.791-4.619-0.983-3.95-0.586-5.947c0.397-1.997 1.377-3.831 2.817-5.27s3.274-2.42 5.27-2.817 4.066-0.193 5.947 0.586c1.881 0.779 3.488 2.098 4.619 3.791s1.735 3.683 1.735 5.718c0 2.73-1.084 5.348-3.015 7.278s-4.548 3.015-7.278 3.015z"></path>
<path fill="#fff" style="fill: var(--color1, #fff)" d="M19.882 9.905c-0.054-0.065-0.121-0.116-0.197-0.152s-0.159-0.054-0.243-0.054h-6.862c-0.139 0.005-0.271 0.060-0.372 0.154-0.025 0.014-0.048 0.031-0.069 0.051l-2.859 3.431c-0.078 0.094-0.123 0.21-0.13 0.331s0.024 0.242 0.090 0.344l6.29 9.721c0.052 0.080 0.123 0.146 0.207 0.192s0.178 0.070 0.273 0.070c0.096 0 0.19-0.024 0.273-0.070s0.155-0.112 0.207-0.192l6.29-9.721c0.066-0.102 0.098-0.223 0.090-0.344s-0.053-0.237-0.13-0.331l-2.859-3.431zM12.363 11.414l0.572 1.716h-1.99l1.418-1.716zM17.578 14.273l-1.567 6.65-1.567-6.65h3.134zM14.793 13.13l1.218-1.83 1.218 1.83h-2.436zM18.127 12.409l-1.046-1.567h1.567l-0.52 1.567zM13.895 12.409l-0.52-1.567h1.567l-1.046 1.567zM13.272 14.273l1.424 6.067-3.923-6.067h2.499zM18.75 14.273h2.499l-3.923 6.067 1.424-6.067zM19.093 13.13l0.572-1.716 1.418 1.716h-1.99z"></path>
</symbol>
<symbol id="icon-gormone" viewBox="0 0 32 32">
<path fill="#fff" style="fill: var(--color1, #fff)" d="M25.564 8.938l-2.936-2.936c-0.55-0.55-1.415-0.55-1.94-0.026s-0.498 1.389 0.026 1.94l0.498 0.498-1.651 1.651 0.655 0.655 2.307-2.307-1.153-1.153c-0.183-0.184-0.183-0.472-0.026-0.629s0.446-0.157 0.629 0.026l2.883 2.936c0.183 0.183 0.183 0.472 0.026 0.629s-0.446 0.157-0.629-0.026l-1.153-1.153-2.28 2.28 0.655 0.655 1.678-1.625 0.498 0.498c0.55 0.55 1.415 0.55 1.94 0.026s0.498-1.415-0.026-1.94z"></path>
<path fill="#fff" style="fill: var(--color1, #fff)" d="M22.97 12.818l-4.194-4.194c-0.288-0.288-0.681-0.446-1.075-0.446-0.419 0-0.786 0.157-1.075 0.446-0.524 0.524-0.577 1.363-0.131 1.966l-7.942 7.942v0.183c0 0.079 0 1.468 0.288 2.49l-2.962 2.962c-0.419 0.393-0.419 1.049 0 1.468 0.183 0.21 0.446 0.315 0.734 0.315s0.55-0.105 0.76-0.315l2.962-2.962c1.022 0.315 2.438 0.341 2.516 0.341h0.183l7.942-7.942c0.262 0.21 0.577 0.315 0.917 0.315 0.419 0 0.786-0.157 1.075-0.446 0.577-0.577 0.577-1.546 0-2.123zM22.288 14.286c-0.21 0.236-0.603 0.236-0.839 0l-0.498-0.498-8.309 8.309c-0.446-0.026-1.599-0.105-2.307-0.367l-0.262-0.105-3.381 3.381c-0.052 0.052-0.131 0.052-0.183 0s-0.052-0.131 0-0.183l3.381-3.381-0.105-0.262c-0.236-0.708-0.288-1.835-0.315-2.28l8.283-8.309-0.498-0.498c-0.236-0.236-0.236-0.603 0-0.839 0.21-0.236 0.603-0.236 0.839 0l4.194 4.194c0.236 0.236 0.236 0.603 0 0.839z"></path>
<path fill="#fff" style="fill: var(--color1, #fff)" d="M15.342 13.997l-5.085 5.059c0 0 0 0.944 0.21 1.494 0.105 0.446 0.472 0.498 0.472 0.498 0.55 0.21 1.52 0.236 1.52 0.236l5.085-5.085-2.202-2.202zM19.581 10.72l0.649-0.649 1.26 1.26-0.649 0.649-1.26-1.26z"></path>
<path fill="none" stroke="#fff" style="stroke: var(--color1, #fff)" stroke-linejoin="miter" stroke-linecap="butt" stroke-miterlimit="4" stroke-width="1.3913" d="M5.156 5.765l21.069 20.421M16 31.072c-8.324 0-15.072-6.748-15.072-15.072s6.748-15.072 15.072-15.072c8.324 0 15.072 6.748 15.072 15.072s-6.748 15.072-15.072 15.072z"></path>
</symbol>
<symbol id="icon-meat" viewBox="0 0 36 32">
<path fill="#fff" style="fill: var(--color1, #fff)" d="M26.966 3.556c-0.077 0-0.154 0.001-0.226 0.003-2.975 0.050-5.002 1.071-6.494 2.402v-4.183c0-0.11-0.031-0.218-0.089-0.312s-0.141-0.169-0.24-0.218c-0.256-0.128-2.542-1.248-3.834-1.248-0.785 0-1.776 0.154-2.735 0.302-0.937 0.145-1.908 0.295-2.614 0.29-0.623-0.004-1.606-0.149-2.556-0.288-1.021-0.15-2.076-0.305-2.801-0.305-1.293 0-3.578 1.12-3.834 1.248-0.099 0.049-0.182 0.125-0.24 0.218s-0.089 0.201-0.089 0.312v9.482c0 0.101 0.026 0.2 0.075 0.289s0.121 0.162 0.207 0.215 0.185 0.083 0.286 0.088c0.101 0.005 0.202-0.017 0.293-0.062 0.627-0.312 2.444-1.123 3.303-1.123 0.638 0 1.65 0.148 2.628 0.292 1.036 0.152 2.015 0.295 2.72 0.301 0.805 0.007 1.821-0.152 2.805-0.304 0.914-0.142 1.859-0.288 2.552-0.288 0.18 0.005 0.358 0.028 0.533 0.070-0.362 0.525-0.709 0.96-1.072 1.237-0.946 0.722-2.544 1.080-4.757 1.064-0.047 0-0.087-0.001-0.121-0.001-1.933 0-3.505 1.595-3.505 3.556v2.37c-0.005 0.462 0.092 0.92 0.285 1.341s0.476 0.794 0.83 1.093c-0.503 0.097-0.979 0.3-1.397 0.595s-0.766 0.677-1.023 1.119h-1.256l-1.643-1.836c-0.156-0.168-0.345-0.303-0.555-0.395s-0.438-0.139-0.668-0.139c-0.23 0-0.457 0.047-0.668 0.139s-0.4 0.226-0.555 0.395c-0.307 0.335-0.48 0.772-0.484 1.226s0.159 0.894 0.46 1.235l0.87 1.153-0.87 1.153c-0.301 0.341-0.465 0.781-0.46 1.235s0.177 0.891 0.484 1.226c0.156 0.168 0.345 0.303 0.555 0.395s0.438 0.139 0.668 0.139 0.457-0.047 0.668-0.139c0.211-0.092 0.4-0.226 0.555-0.395l0.010-0.011 1.632-1.825h1.256c0.313 0.54 0.763 0.989 1.305 1.301s1.157 0.477 1.783 0.477c1.221 0 2.665 0.724 4.193 1.491 1.929 0.968 4.115 2.064 6.512 2.064 1.039-0 2.066-0.227 3.009-0.663s1.778-1.073 2.448-1.865c0.67-0.792 1.158-1.72 1.431-2.72s0.323-2.046 0.147-3.067c5.67-0.243 9.024-2.855 9.024-7.092v-4.148c0-4.901-3.923-8.889-8.744-8.889zM5.378 1.185c0.638 0 1.65 0.148 2.628 0.292 1.036 0.152 2.015 0.295 2.72 0.301 0.805 0.007 1.821-0.152 2.805-0.304 0.914-0.142 1.859-0.288 2.552-0.288 0.738 0 2.184 0.599 2.974 0.965v2.255c-0.849-0.368-2.125-0.85-2.974-0.85-0.785 0-1.776 0.154-2.735 0.302-0.937 0.145-1.908 0.297-2.614 0.29-0.623-0.005-1.606-0.149-2.556-0.288-1.021-0.15-2.076-0.305-2.801-0.305-0.848 0-2.124 0.482-2.974 0.85v-2.255c0.79-0.366 2.236-0.965 2.974-0.965zM13.349 9.784c-0.937 0.145-1.908 0.296-2.614 0.29-0.623-0.005-1.606-0.149-2.556-0.288-1.021-0.15-2.076-0.305-2.801-0.305-0.848 0-2.124 0.482-2.974 0.85v-2.255c0.79-0.366 2.235-0.965 2.974-0.965 0.638 0 1.65 0.148 2.628 0.292 1.036 0.152 2.015 0.295 2.72 0.301 0.805 0.007 1.821-0.152 2.805-0.304 0.914-0.142 1.859-0.288 2.552-0.288 0.598 0 1.661 0.393 2.463 0.738-0.468 0.627-0.872 1.258-1.245 1.84-0.488-0.139-0.889-0.207-1.218-0.207-0.785 0-1.776 0.154-2.735 0.302zM10.667 14.222c0.031 0 0.068 0 0.111 0.001 2.48 0.017 4.328-0.422 5.489-1.308 0.745-0.569 1.334-1.49 2.016-2.556 1.576-2.465 3.538-5.532 8.482-5.615 0.066-0.002 0.133-0.003 0.2-0.003 4.166-0 7.555 3.456 7.555 7.704 0 2.122-0.812 4.052-2.287 5.435-1.583 1.484-3.807 2.269-6.432 2.269h-0.835c-0.668-0.746-1.487-1.343-2.403-1.751s-1.908-0.619-2.912-0.619c-2.186 0-4.195 0.911-5.994 1.805-0.933-0.156-1.864-0.353-2.843-0.602-2.143-0.545-2.463-1.731-2.463-2.389 0-1.307 1.039-2.37 2.316-2.37zM10.154 21.141c-0.83-0.324-1.735-0.933-1.799-2.051 0.55 0.459 1.279 0.814 2.165 1.039 0.457 0.116 0.915 0.224 1.376 0.323-0.562 0.275-1.144 0.505-1.742 0.688zM19.652 30.815c-2.115 0-4.079-0.985-5.977-1.938-1.658-0.832-3.225-1.618-4.728-1.618-0.631 0-1.236-0.25-1.682-0.694s-0.697-1.047-0.697-1.676c0-0.629 0.251-1.232 0.697-1.676s1.051-0.694 1.682-0.694c1.503 0 3.070-0.786 4.728-1.618 1.899-0.953 3.862-1.938 5.977-1.938 1.577 0 3.090 0.624 4.206 1.736s1.742 2.619 1.742 4.19c0 1.572-0.627 3.079-1.742 4.19s-2.628 1.736-4.206 1.736zM26.377 22.51c-0.146-0.408-0.329-0.802-0.547-1.177 2.922-0.006 5.417-0.901 7.219-2.591 0.571-0.536 1.064-1.149 1.463-1.822-0.174 3.434-3.108 5.448-8.135 5.59z"></path>
<path fill="#fff" style="fill: var(--color1, #fff)" d="M26.247 15.116c0.823 0 1.628-0.243 2.313-0.699s1.218-1.104 1.533-1.862c0.315-0.758 0.398-1.592 0.237-2.397s-0.557-1.544-1.139-2.124-1.324-0.975-2.132-1.135c-0.808-0.16-1.645-0.078-2.405 0.236s-1.411 0.846-1.868 1.528c-0.457 0.682-0.702 1.484-0.702 2.305 0.001 1.1 0.44 2.154 1.221 2.932s1.839 1.215 2.942 1.216z"></path>
</symbol>
<symbol id="icon-person" viewBox="0 0 32 32">
<path fill="#fff" style="fill: var(--color1, #fff)" d="M30.526 19.667h-3.050v-1.526c0-0.841-0.684-1.526-1.525-1.526h-5.083c-0.438 0-0.831 0.189-1.11 0.486l-5.498-0.916v-1.274c1.517-0.881 2.542-2.52 2.542-4.397h0.508c0.841 0 1.525-0.684 1.525-1.526s-0.684-1.526-1.525-1.526h-0.244l0.279-0.646c0.257-0.599 0.369-1.25 0.326-1.9s-0.24-1.281-0.575-1.84c-0.427-0.714-1.062-1.281-1.819-1.625l-1.419-0.646c-1.675-0.763-3.728-0.54-5.2 0.564l-0.802 0.601 0.001 0.002c-0.803 0.209-1.494 0.724-1.923 1.435-0.275 0.456-0.43 0.975-0.451 1.508s0.094 1.062 0.334 1.538l0.505 1.010h-0.194c-0.841 0-1.525 0.684-1.525 1.526s0.684 1.526 1.525 1.526h0.508c0 1.877 1.025 3.516 2.542 4.397v1.274l-6.176 1.030c-0.832 0.136-1.588 0.565-2.133 1.208s-0.843 1.46-0.84 2.303v10.637c0 0.135 0.054 0.264 0.149 0.36s0.225 0.149 0.359 0.149h29.99c0.561 0 1.017-0.456 1.017-1.017v-10.17c0-0.561-0.456-1.017-1.017-1.017zM26.46 18.142v1.526h-3.219c-0.271-0.862-0.86-1.59-1.646-2.034h4.357c0.28 0 0.508 0.228 0.508 0.509zM20.36 18.241c0.39 0.080 0.756 0.251 1.067 0.499s0.561 0.565 0.727 0.927h-1.794v-1.426zM17.819 8.989c0 0.28-0.228 0.508-0.508 0.508h-0.508v-1.017h0.508c0.28 0 0.508 0.228 0.508 0.508zM6.128 9.497c-0.28 0-0.508-0.228-0.508-0.508s0.228-0.508 0.508-0.508h0.508v1.017h-0.508zM7.653 10.514v-2.931l0.69-1.382 0.326 0.245c0.874 0.656 1.957 1.017 3.050 1.017s2.176-0.361 3.050-1.017l0.326-0.245 0.69 1.382v2.931c0 2.243-1.824 4.068-4.066 4.068s-4.066-1.825-4.066-4.068zM11.719 15.599c0.517 0 1.032-0.079 1.525-0.234v1.041l-1.525 1.526-1.525-1.526v-1.041c0.493 0.156 1.008 0.235 1.525 0.234zM11.555 21.193h0.328l0.83 2.075-0.994 4.309-0.994-4.309 0.83-2.075zM6.128 30.855v-8.645h-1.017v8.645h-4.066v-10.128c-0.002-0.602 0.211-1.186 0.6-1.645s0.929-0.766 1.523-0.863l6.343-1.057 0.609 0.61-0.409 1.228c-0.025 0.073-0.032 0.152-0.022 0.228s0.038 0.15 0.081 0.215l0.868 1.303-0.918 2.294c-0.038 0.096-0.046 0.202-0.023 0.303l1.525 6.611c0.026 0.112 0.089 0.213 0.179 0.285s0.202 0.111 0.317 0.111c0.115 0 0.227-0.039 0.317-0.111s0.153-0.172 0.179-0.285l1.525-6.611c0.023-0.101 0.015-0.206-0.023-0.303l-0.917-2.294 0.868-1.303c0.087-0.131 0.109-0.294 0.059-0.443l-0.409-1.228 0.609-0.61 5.425 0.904c-0.001 0.026-0.008 0.050-0.008 0.077v1.526h-3.050c-0.561 0-1.017 0.456-1.017 1.017v10.17h-9.15zM16.294 30.855v-1.017h14.233v1.017h-14.233zM30.527 28.821h-14.233v-4.125c0.33 0.34 0.726 0.61 1.162 0.794s0.906 0.279 1.379 0.279h3.050v0.509c0 0.841 0.684 1.526 1.525 1.526s1.525-0.684 1.525-1.526v-0.509h3.050c0.474 0 0.943-0.095 1.38-0.279s0.832-0.454 1.162-0.794v4.125zM30.526 22.21c0 1.402-1.14 2.543-2.542 2.543h-3.050v-1.526c0-0.135-0.054-0.264-0.149-0.36s-0.225-0.149-0.359-0.149h-2.033c-0.135 0-0.264 0.054-0.359 0.149s-0.149 0.225-0.149 0.36v1.526h-3.050c-1.401 0-2.542-1.141-2.542-2.543v-1.526h14.233v1.526z"></path>
</symbol>
<symbol id="icon-proc-1" viewBox="0 0 28 32">
<path fill="#2a275e" style="fill: var(--color1, #2a275e)" d="M15.117 11.786c-0.334-0.318-0.779-0.495-1.241-0.495s-0.906 0.177-1.241 0.495l-1.178 1.175c-0.076 0.076-0.127 0.174-0.144 0.28s-0.001 0.215 0.047 0.311l0.568 1.133c0.181 0.361 0.459 0.664 0.803 0.876s0.74 0.324 1.145 0.324 0.801-0.112 1.145-0.324c0.344-0.212 0.622-0.515 0.803-0.876l0.571-1.133c0.048-0.096 0.065-0.205 0.047-0.311s-0.068-0.204-0.144-0.28l-1.181-1.175zM14.39 12.511l0.537 0.535-1.050 0.262-1.050-0.262 0.537-0.535c0.138-0.132 0.322-0.206 0.514-0.206s0.376 0.074 0.514 0.206zM13.876 14.861c-0.214 0.001-0.423-0.058-0.605-0.17s-0.328-0.272-0.423-0.463l-0.068-0.137 0.971 0.242c0.082 0.020 0.168 0.020 0.25 0l0.971-0.242-0.068 0.137c-0.095 0.191-0.241 0.351-0.423 0.463s-0.391 0.171-0.605 0.17z"></path>
<path fill="#2a275e" style="fill: var(--color1, #2a275e)" d="M26.030 12.324l-5.448 1.018c0.625-1.594 0.652-3.359 0.077-4.971l2.91 1.583c0.095 0.052 0.204 0.072 0.311 0.059s0.208-0.061 0.287-0.135 0.133-0.171 0.153-0.277c0.021-0.106 0.007-0.216-0.039-0.314-2.716-5.816-6.603-9.288-10.406-9.288s-7.69 3.472-10.406 9.289c-0.046 0.098-0.059 0.208-0.039 0.314s0.074 0.203 0.153 0.277c0.079 0.074 0.179 0.121 0.287 0.135s0.216-0.007 0.311-0.059l2.909-1.583c-0.575 1.612-0.548 3.377 0.077 4.971l-5.448-1.019c-0.088-0.017-0.178-0.025-0.267-0.026-0.386 0.001-0.755 0.153-1.028 0.425s-0.426 0.64-0.427 1.025c0 0.482 0.126 0.956 0.366 1.374 1.149 2.003 2.846 3.639 4.894 4.714-0.079 0.386-0.119 0.779-0.12 1.172 0 2.902 2.113 5.402 5.139 6.53v0.84l-2.799 1.395 0.459 0.917 1.705-0.85-0.853 1.7 0.92 0.458 0.835-1.664 0.257 1.52 1.013-0.168-0.509-3.034v-0.788c1.687 0.424 3.453 0.424 5.139 0v0.788l-0.507 3.033 1.013 0.168 0.257-1.52 0.829 1.665 0.92-0.458-0.853-1.7 1.707 0.853 0.459-0.917-2.799-1.398v-0.84c3.026-1.127 5.139-3.628 5.139-6.53-0.001-0.394-0.041-0.786-0.12-1.172 2.048-1.076 3.745-2.711 4.894-4.714 0.24-0.419 0.366-0.893 0.366-1.375-0.003-0.212-0.052-0.421-0.143-0.613s-0.224-0.361-0.388-0.496c-0.164-0.136-0.355-0.234-0.561-0.288s-0.421-0.064-0.631-0.027zM13.876 16.91c-1.044 0.001-2.070-0.263-2.984-0.766s-1.684-1.229-2.239-2.111c-0.555-0.881-0.877-1.889-0.935-2.928s0.15-2.076 0.604-3.013l2.076 2.484c0.046 0.055 0.102 0.099 0.166 0.131s0.134 0.050 0.205 0.053c0.071 0.004 0.143-0.007 0.21-0.033s0.127-0.066 0.177-0.117l2.72-2.712 2.72 2.712c0.096 0.096 0.227 0.15 0.363 0.15h0.023c0.071-0.003 0.141-0.021 0.205-0.053s0.121-0.076 0.166-0.131l2.076-2.484c0.454 0.937 0.661 1.974 0.603 3.013s-0.38 2.046-0.935 2.927-1.326 1.607-2.239 2.11c-0.913 0.503-1.94 0.767-2.984 0.766zM4.574 18.229c0.223-0.364 0.404-0.752 0.54-1.157l-0.976-0.324c-0.102 0.293-0.233 0.575-0.391 0.842-0.363-0.304-0.707-0.631-1.028-0.979 0.293-0.293 0.558-0.613 0.792-0.955l-0.855-0.569c-0.177 0.259-0.375 0.504-0.593 0.731-0.294-0.384-0.563-0.786-0.804-1.205-0.151-0.264-0.231-0.562-0.231-0.866 0.002-0.062 0.017-0.123 0.045-0.178s0.066-0.105 0.114-0.144 0.103-0.068 0.163-0.085c0.060-0.017 0.122-0.020 0.184-0.011l6.209 1.161c0.198 0.325 0.421 0.633 0.668 0.922-1.286 0.815-2.285 2.009-2.86 3.416-0.335-0.183-0.661-0.384-0.976-0.601zM13.876 27.159c-4.251 0-7.709-2.758-7.709-6.149 0-1.896 1.117-3.682 2.99-4.846 1.305 1.142 2.982 1.772 4.719 1.772s3.414-0.63 4.719-1.772c1.873 1.164 2.99 2.95 2.99 4.846 0 3.391-3.458 6.149-7.709 6.149zM26.494 14.615c-0.242 0.418-0.51 0.821-0.804 1.205-0.217-0.227-0.416-0.471-0.593-0.731l-0.855 0.569c0.234 0.342 0.5 0.661 0.792 0.955-0.321 0.348-0.665 0.675-1.028 0.979-0.158-0.267-0.289-0.549-0.391-0.842l-0.977 0.324c0.136 0.405 0.317 0.793 0.54 1.157-0.315 0.217-0.641 0.417-0.977 0.601-0.574-1.407-1.573-2.601-2.858-3.416 0.247-0.289 0.47-0.598 0.668-0.922l6.208-1.16c0.061-0.010 0.124-0.007 0.184 0.009s0.116 0.045 0.164 0.085 0.087 0.089 0.114 0.145c0.027 0.056 0.042 0.117 0.043 0.179-0 0.304-0.080 0.602-0.231 0.866z"></path>
</symbol>
<symbol id="icon-proc-2" viewBox="0 0 30 32">
<path fill="#2a275e" style="fill: var(--color1, #2a275e)" d="M8.006 0.001c-0.596 0.084-0.966 0.527-1.302 0.82-0.119-0.49-0.379-0.804-0.888-0.81-0.778 0.041-1.101 0.591-1.413 1.16-0.472-0.324-0.906-0.173-1.282 0.21-0.309 0.412-0.386 0.909-0.444 1.37-0.529 0.149-0.988 0.527-1.12 1.020-0.107 0.422 0.012 0.796 0.192 1.16-0.557 0.39-1.067 0.857-1.554 1.34-0.184 0.177-0.246 0.467-0.149 0.702s0.347 0.4 0.603 0.398c0.727 0 1.076 0.069 1.403 0.15-0.208 0.533-0.434 1.115-0.434 1.77 0.043 1.641 1.212 2.286 2.574 2.47-0.011 0.584-0.175 1.14-0.464 1.84-0.362 0.877-0.817 1.956-0.817 3.369 0 1.992 1.048 4.248 2.715 6.069 0.777 0.848 1.704 1.596 2.735 2.16l-0.484 0.6c-1.198-0.526-2.377-0.849-3.512-1.13-0.292-0.076-0.628 0.083-0.753 0.355s-0.023 0.627 0.228 0.794c0.682 0.45 1.348 0.924 1.998 1.46-0.703 0.26-1.332 0.55-1.998 0.99-0.268 0.159-0.386 0.528-0.258 0.811s0.484 0.442 0.782 0.349c1.276-0.316 2.159-0.593 3.29-0.61 0.638 0.171 1.287 0.785 2.553 2.040 0.179 0.176 0.468 0.232 0.701 0.136s0.397-0.337 0.399-0.586c0-0.843-0.363-1.578-0.787-2.27 0.237-0.066 0.425-0.277 0.463-0.517s-0.077-0.498-0.282-0.633l-0.454-0.3 0.373-0.63c0.535 0.118 1.087 0.19 1.655 0.19 1.303 0 2.722-0.092 4.128-0.33l-0.202 1.98c-1.412 0.070-2.637 0.331-3.764 0.61-0.302 0.077-0.519 0.395-0.48 0.7s0.33 0.56 0.642 0.559c0.938 0 1.793 0.042 2.533 0.15-0.183 0.314-0.377 0.68-0.565 1.24-0.095 0.272 0.022 0.601 0.269 0.753s0.597 0.111 0.801-0.094c0.862-0.854 1.211-1.177 1.928-1.67 1.106 0.286 2.023 0.568 2.907 0.86 0.273 0.087 0.598-0.033 0.748-0.275s0.11-0.583-0.092-0.785c-0.467-0.463-1.080-0.874-1.736-1.23 0.014-0.009 0.016-0.011 0.030-0.020 0.227-0.152 0.336-0.458 0.255-0.718s-0.344-0.452-0.618-0.452h-0.575l0.212-2.15c0.476-0.148 0.943-0.315 1.393-0.51 2.301-1 4.195-2.759 4.693-5.449 1.031-0.251 2.174-0.338 3.018-0.89 0.123-0.104 0.303-0.293 0.303-0.6 0-0.256-0.114-0.452-0.242-0.61 0.544-0.359 1.026-0.743 1.463-1.17 0.25-0.228 0.338-0.539 0.394-0.78 0-0.293-0.173-0.557-0.323-0.69-0.109-0.097-0.206-0.131-0.303-0.18 0.347-0.388 0.62-0.929 0.626-1.37-0-0.335-0.308-0.64-0.646-0.64h-0.303c0.199-0.36 0.308-0.772 0.384-1.14 0.030-0.261 0.037-0.614-0.273-0.92-0.33-0.259-0.676-0.167-1.029-0.080 0.131-0.381 0.245-0.801 0.313-1.17 0.038-0.279 0.108-0.633-0.252-0.99-0.12-0.115-0.287-0.181-0.454-0.18-0.365 0-0.581 0.116-0.787 0.24-0.101-0.635-0.105-1.319-0.394-1.84-0.187-0.328-0.622-0.64-1.080-0.64-0.372 0-0.618 0.164-0.828 0.34-0.753 0.712-1.323 1.701-1.786 2.49-0.76 1.296-1.549 2.744-2.23 3.809-1.432-0.308-3.306-0.768-5.157-0.58-0.905-1.451-1.807-2.677-2.695-3.849-0.638-1.532-1.588-2.792-2.765-3.999 0.273-0.775 0.609-1.932 0.091-2.51-0.382-0.287-0.854-0.158-1.262-0.080 0.379-0.659 0.049-1.412-0.555-1.39zM8.652 4.68c1.222 1.22 2.107 2.4 2.705 3.879 0.020 0.053 0.047 0.104 0.081 0.15 0.612 0.809 1.215 1.623 1.817 2.5-0.378 0.057-0.648 0.288-0.656 0.72l0.192 1.55-0.959-0.32c-0.39-0.127-0.855 0.213-0.848 0.62v0.29l-1.998-0.89c-0.393-0.173-0.912 0.164-0.908 0.59v0.32l-1.554-1.16c-0.373-0.273-1.004 0.021-1.029 0.48l-0.232-0.19c0.183-0.538 0.304-1.115 0.262-1.75 0.794-0.783 1.126-1.901 0.787-2.909-0.291-0.866-1.078-1.571-2.24-1.93 0.077-0.156 0.131-0.328 0.131-0.54-0-0.1-0.025-0.201-0.071-0.29 0 0-0.169-0.33-0.505-0.68 0.943-0.791 1.778-1.226 2.483-1.28 0.926-0.066 1.948 0.331 2.543 0.84zM6.139 4.81c-0.535 0-0.969 0.358-0.969 0.8s0.434 0.8 0.969 0.8c0.535 0 0.969-0.358 0.969-0.8s-0.434-0.8-0.969-0.8zM5.816 5.449c0.178 0 0.323 0.143 0.323 0.32s-0.145 0.32-0.323 0.32c-0.178 0-0.323-0.143-0.323-0.32s0.145-0.32 0.323-0.32zM25.163 7.129c0.277 0.745 0.164 1.678 0.384 2.36 0.116 0.35 0.577 0.538 0.908 0.37 0.092-0.046 0.157-0.090 0.242-0.14-0.166 0.52-0.393 1.129-0.515 1.67-0.097 0.45 0.436 0.898 0.868 0.73 0.207-0.082 0.404-0.176 0.606-0.27-0.141 0.344-0.317 0.719-0.454 0.99-0.199 0.388 0.136 0.929 0.575 0.93h0.262c-0.119 0.164-0.211 0.319-0.394 0.5-0.274 0.265-0.227 0.778 0.091 0.99 0.174 0.115 0.29 0.147 0.424 0.2-0.511 0.481-1.16 0.922-1.716 1.29-0.371 0.297-0.33 0.74-0.071 1.010-0.766 0.209-1.605 0.366-2.281 0.5-0.264 0.052-0.482 0.285-0.515 0.55-0.294 2.479-1.847 3.947-4.017 4.889s-4.922 1.27-7.287 1.27c-2.192 0-4.22-1.17-5.702-2.79s-2.372-3.682-2.372-5.209c0-0.978 0.264-1.739 0.565-2.489l1.282 1.060c0.199 0.162 0.499 0.188 0.724 0.064s0.36-0.391 0.326-0.644l1.241 0.92c0.19 0.139 0.461 0.162 0.672 0.057s0.355-0.333 0.357-0.567v-0.62l2.018 0.9c0.393 0.173 0.912-0.164 0.908-0.59l-0.010-0.41 1.080 0.36c0.41 0.137 0.897-0.254 0.848-0.68 0.040-0.571 0.059-1.521 0.050-1.57 0.178 0.276 0.427 0.386 0.706 0.36 1.72-0.284 3.907 0.3 5.571 0.63 0.249 0.051 0.524-0.061 0.666-0.27 0.789-1.172 1.673-2.848 2.483-4.229 0.467-0.755 0.871-1.501 1.474-2.12h-0zM10.842 16.248c-1.362 0.846-1.803 2.473-1.585 3.649 0.292 1.4 1.48 2.706 3.411 2.98 1.885 0.096 3.572-0.237 5.066-0.68 0.794-0.241 1.498-0.524 2.039-0.88 0.551-0.384 1.024-0.999 0.878-1.63-0.234-0.646-0.737-0.887-1.322-1.030-1.143-0.142-2.207 0.074-3.31 0.1-0.463 0.009-0.803-0.094-0.797-0.090-0.264-0.174-0.9-0.981-1.585-1.66-0.342-0.339-0.716-0.658-1.191-0.85-0.562-0.189-1.094-0.182-1.605 0.090z"></path>
</symbol>
<symbol id="icon-proc-3" viewBox="0 0 32 32">
<path fill="none" stroke="#2a275e" style="stroke: var(--color1, #2a275e)" stroke-linejoin="round" stroke-linecap="round" stroke-miterlimit="10" stroke-width="1.4328" d="M3.368 18.395c0.703 1.416 1.76 1.356 2.094 1.356s1.39 0.060 2.094-1.356c0.088-0.177 0.157-0.35 0.212-0.52M3.143 9.98c-0.491 0.402-1.061 0.879-1.364 1.815-0.486 1.504 0.54 2.746 0.963 3.364 0.211 0.309 0.192 0.764 0.207 1.319M5.57 8.1c0.681 0.138 1.067 0.451 1.479 1.144 0.432 0.729 1.609 1.046 2.095 2.551 0.269 0.831 0.076 1.581-0.222 2.191M5.337 7.814v-1.676c0-0.144 0.227-0.742 0.227-0.83 0-0.327-0.407-0.593-0.909-0.593M4.655 4.715c-0.503 0-0.91 0.266-0.91 0.593 0 0.088 0.227 0.686 0.227 0.83v1.676M4.655 4.715l-0-1.891M13.681 9.98c-0.491 0.401-1.060 0.878-1.363 1.814-0.486 1.504 0.54 2.746 0.963 3.364s-0.079 1.82 0.625 3.237c0.704 1.416 1.76 1.356 2.094 1.356s1.39 0.060 2.094-1.356c0.088-0.177 0.157-0.35 0.212-0.52M16.109 8.1c0.682 0.138 1.067 0.451 1.478 1.144 0.433 0.729 1.609 1.046 2.096 2.551 0.269 0.831 0.076 1.581-0.222 2.191M15.876 7.814v-1.676c0-0.144 0.227-0.742 0.227-0.83 0-0.327-0.407-0.593-0.91-0.593M15.193 4.715c-0.502 0-0.91 0.266-0.91 0.593 0 0.088 0.227 0.686 0.227 0.83v1.676M15.193 4.715l0-1.891M24.22 9.98c-0.491 0.401-1.061 0.878-1.364 1.814-0.486 1.504 0.541 2.746 0.963 3.364s-0.079 1.82 0.625 3.237c0.704 1.416 1.76 1.356 2.094 1.356s1.39 0.060 2.094-1.356c0.088-0.177 0.157-0.35 0.212-0.52M26.648 8.1c0.682 0.138 1.067 0.451 1.478 1.144 0.432 0.729 1.609 1.046 2.096 2.551 0.269 0.831 0.076 1.581-0.222 2.191M26.414 7.814v-1.676c0-0.144 0.227-0.742 0.227-0.83 0-0.327-0.407-0.593-0.91-0.593M25.732 4.715c-0.503 0-0.91 0.266-0.91 0.593 0 0.088 0.227 0.686 0.227 0.83v1.676M25.732 4.715v-1.891M29.153 27.247v3.357c0 0.129-0.051 0.253-0.143 0.344s-0.215 0.143-0.344 0.143h-10.729c-0.129 0-0.253-0.051-0.344-0.143s-0.143-0.215-0.143-0.344v-7.636c0-0.064 0.013-0.127 0.037-0.186s0.060-0.113 0.106-0.158c0.045-0.045 0.099-0.081 0.158-0.105s0.122-0.037 0.186-0.037h10.729c0.064 0 0.127 0.013 0.186 0.037s0.113 0.060 0.158 0.105c0.045 0.045 0.081 0.099 0.105 0.158s0.037 0.122 0.037 0.186v4.666M20.392 24.967h6.063M20.392 26.786h6.063M20.392 28.605h3.656M17.451 26.786h-11.989v-4.781M10.189 0.955h20.879v1.819h-30.135v-1.819h9.256zM5.472 16.081c0.179 0.747 0.984 2.2 2.413 1.762s1.431-3.635 1.068-3.845c-0.364-0.211-2.079 3.751-2.266 3.761s0.489-4.983-0.408-4.594c-0.897 0.389-0.987 2.17-0.807 2.917zM3.139 10.12c0-1.174 0.679-2.641 1.516-2.641s1.516 1.467 1.516 2.641c0 1.174-0.679 1.61-1.516 1.61s-1.516-0.436-1.516-1.61zM16.010 16.081c0.179 0.747 0.984 2.2 2.413 1.762s1.431-3.635 1.068-3.845c-0.364-0.211-2.11 3.867-2.297 3.877s0.52-5.1-0.377-4.711c-0.897 0.389-0.987 2.17-0.807 2.917zM13.678 10.12c0-1.174 0.679-2.641 1.516-2.641s1.516 1.467 1.516 2.641c0 1.174-0.679 1.61-1.516 1.61s-1.516-0.436-1.516-1.61zM26.549 16.081c0.179 0.747 0.984 2.2 2.413 1.762s1.432-3.635 1.068-3.845c-0.364-0.211-2.079 3.751-2.266 3.761s0.489-4.983-0.408-4.594c-0.897 0.389-0.987 2.17-0.807 2.917zM24.216 10.12c0-1.174 0.679-2.641 1.516-2.641s1.516 1.467 1.516 2.641c0 1.174-0.679 1.61-1.516 1.61s-1.516-0.436-1.516-1.61z"></path>
</symbol>
<symbol id="icon-proc-4" viewBox="0 0 25 32">
<path fill="#2a275e" style="fill: var(--color1, #2a275e)" d="M22.697 26.576c0.107-0.49 0.209-0.952 0.342-1.402 1.043-3.529 1.488-6.878 1.322-9.956-0.153-2.849-0.72-6.394-1.601-9.991v-4.697c0-0.14-0.056-0.275-0.155-0.374s-0.234-0.155-0.374-0.155h-19.553c-0.14 0-0.275 0.056-0.374 0.155s-0.155 0.234-0.155 0.374v4.7l-0.186 0.795c-1.085 4.639-2.314 9.895-1.87 14.516 0.315 3.28 1.21 6.546 2 9.427l0.51-0.14-0.496 0.192c0.027 0.103 0.041 0.206 0.041 0.315v1.138c-0 0.080 0.018 0.16 0.053 0.232s0.086 0.136 0.15 0.185c0.063 0.049 0.137 0.084 0.216 0.1s0.16 0.015 0.238-0.005l4.708-1.177c0.464-0.117 0.945-0.154 1.421-0.11l14.306 1.301c0.108 0.010 0.217-0.014 0.311-0.068s0.17-0.136 0.216-0.234c0.046-0.098 0.061-0.209 0.042-0.316s-0.070-0.206-0.147-0.283l-1.648-1.648c-0.044-0.044-0.073-0.1-0.084-0.162s-0.003-0.124 0.023-0.181c0.367-0.816 0.558-1.687 0.743-2.531zM21.663 26.349c-0.172 0.786-0.34 1.529-0.632 2.216h-1.974v1.058h1.873c0.063 0.213 0.175 0.412 0.338 0.574l0.615 0.615-12.851-1.169c-0.595-0.054-1.194-0.007-1.773 0.137l-4.051 1.012v-0.46c0-0.2-0.026-0.398-0.077-0.588l-0.015-0.058-0.017-0.064h1.148v-1.058h-1.438c-0.691-2.552-1.395-5.35-1.662-8.127-0.427-4.448 0.782-9.615 1.847-14.174l0.199-0.855c0.009-0.039 0.014-0.080 0.014-0.12v-4.232h18.496v4.232c0 0.042 0.005 0.085 0.015 0.126 0.873 3.556 1.437 7.057 1.586 9.858 0.159 2.957-0.272 6.187-1.28 9.599-0.143 0.486-0.254 0.99-0.361 1.476z"></path>
<path fill="#2a275e" style="fill: var(--color1, #2a275e)" d="M14.147 15.77c0.375 0 0.678-0.304 0.678-0.678s-0.304-0.678-0.678-0.678c-0.374 0-0.678 0.304-0.678 0.678s0.304 0.678 0.678 0.678z"></path>
<path fill="#2a275e" style="fill: var(--color1, #2a275e)" d="M14.442 26.173c-0.003-1.248-0.223-2.893-0.411-4.273-0.059-0.436-0.114-0.837-0.156-1.186 0.616-0.205 1.692-0.667 2.239-1.532 0.187-0.297 0.3-0.634 0.329-0.983l2.522 0.438c0.131 0.023 0.266-0.005 0.378-0.077s0.192-0.184 0.225-0.313c0.024-0.093 0.215-0.927-0.325-1.693-0.129-0.18-0.286-0.339-0.464-0.471 0.048-0.081 0.086-0.16 0.111-0.232 0.167-0.475 0.039-0.984-0.095-1.323 0.494-0.549 0.939-1.4 0.364-2.1-0.395-0.48-0.883-0.628-1.311-0.594-0.060-0.379-0.229-0.773-0.599-1.040-0.607-0.44-1.446-0.098-1.904 0.153-0.37-0.194-0.988-0.439-1.532-0.273-0.112 0.034-0.215 0.092-0.302 0.17s-0.157 0.173-0.204 0.28c-0.135 0.3-0.1 0.694-0.012 1.054-1.923 0.004-4.078 1.028-4.944 3.228-0.107 0.283-0.2 0.571-0.28 0.863-0.1 0.346-0.195 0.673-0.334 0.971-0.591 1.263-2.166 2.8-4.043 3.986-0.68-1.33-1.035-2.803-1.036-4.297 0-2.958 1.34-5.698 3.677-7.517l-0.65-0.835c-2.596 2.021-4.085 5.066-4.085 8.352 0 5.834 4.746 10.58 10.58 10.58 2.032 0 4.005-0.578 5.708-1.671l-0.571-0.891c-0.884 0.566-1.855 0.98-2.875 1.227zM4.223 22.142c2.077-1.303 3.789-2.993 4.473-4.455 0.175-0.373 0.286-0.755 0.393-1.125 0.078-0.271 0.153-0.527 0.249-0.77 0.806-2.048 3.037-2.813 4.724-2.493 1.373 0.261 2.22 1.163 2.329 2.429-0.214 0.213-0.482 0.595-0.827 1.284h-0.198c-0.588 0-1.18 0.295-1.666 0.831-0.642 0.707-1.004 1.703-0.923 2.538 0.042 0.437 0.121 1.017 0.209 1.663 0.184 1.356 0.426 3.14 0.402 4.327-0.4 0.052-0.802 0.079-1.206 0.080-3.326 0-6.254-1.717-7.957-4.308zM18.695 23.871l0.724 0.772c0.344-0.323 0.669-0.671 0.964-1.034l-0.82-0.669c-0.268 0.329-0.558 0.64-0.868 0.93zM3.717 3.703h1.587v1.058h-1.587v-1.058zM6.362 3.703h1.587v1.058h-1.587v-1.058zM9.006 3.703h1.587v1.058h-1.587v-1.058zM11.651 3.703h1.587v1.058h-1.587v-1.058zM14.296 3.703h1.587v1.058h-1.587v-1.058zM16.941 3.703h1.587v1.058h-1.587v-1.058zM19.586 3.703h1.587v1.058h-1.587v-1.058z"></path>
</symbol>
<symbol id="icon-arrow" viewBox="0 0 328 32">
<path fill="#777698" style="fill: var(--color2, #777698)" d="M326.844 16.142c0.78-0.781 0.78-2.047 0-2.828l-12.728-12.728c-0.784-0.781-2.048-0.781-2.832 0-0.78 0.781-0.78 2.047 0 2.828l11.316 11.314-11.316 11.314c-0.78 0.781-0.78 2.047 0 2.828 0.784 0.781 2.048 0.781 2.832 0l12.728-12.728zM0 16.728l38.286 0v-4l-38.286-0v4zM76.571 16.728h38.286v-4h-38.286v4zM153.143 16.728h38.286v-4h-38.286v4zM229.712 16.728h38.288v-4h-38.288v4zM306.284 16.728h19.144v-4h-19.144v4z"></path>
</symbol>
<symbol id="icon-phone" viewBox="0 0 29 32">
<path fill="#2a275e" style="fill: var(--color1, #2a275e)" d="M27.253 7.040h-6.24v-4.533c0-1.387-1.12-2.507-2.507-2.507h-16c-1.387 0-2.507 1.12-2.507 2.507v26.987c0 1.387 1.12 2.507 2.507 2.507h16c1.387 0 2.507-1.12 2.507-2.507v-9.6h6.24c0.96 0 1.76-0.8 1.76-1.76v-9.333c0-1.013-0.8-1.76-1.76-1.76zM18.88 25.013h-16.747v-22.507c0-0.213 0.16-0.373 0.373-0.373h16c0.213 0 0.373 0.16 0.373 0.373v4.533h-5.707c-0.96 0-1.76 0.8-1.76 1.76v12.747c0 0.587 0.373 1.067 0.907 1.28 0.16 0.053 0.32 0.107 0.48 0.107 0.373 0 0.747-0.16 1.013-0.427l2.667-2.56h2.4v5.067zM26.88 17.76h-10.56c-0.533 0-1.013 0.213-1.387 0.587l-1.387 1.387v-10.56h13.28v8.587h0.053z"></path>
</symbol>
<symbol id="icon-progress" viewBox="0 0 32 32">
<path fill="#2a275e" style="fill: var(--color1, #2a275e)" d="M8.411 21.68h-6.512c-0.216 0-0.423 0.086-0.576 0.238s-0.238 0.36-0.238 0.576v8.682c0 0.449 0.365 0.814 0.814 0.814h6.512c0.216 0 0.423-0.086 0.576-0.238s0.238-0.36 0.238-0.576v-8.682c0-0.216-0.086-0.423-0.238-0.576s-0.36-0.238-0.576-0.238zM7.597 30.362h-4.884v-7.054h4.884v7.054zM19.264 17.339h-6.512c-0.216 0-0.423 0.086-0.576 0.238s-0.238 0.36-0.238 0.576v13.023c0 0.449 0.365 0.814 0.814 0.814h6.512c0.216 0 0.423-0.086 0.576-0.238s0.238-0.36 0.238-0.576v-13.023c0-0.216-0.086-0.423-0.238-0.576s-0.36-0.238-0.576-0.238zM18.45 30.362h-4.884v-11.395h4.884v11.395zM30.117 12.998h-6.512c-0.216 0-0.423 0.086-0.576 0.238s-0.238 0.36-0.238 0.576v17.365c0 0.449 0.365 0.814 0.814 0.814h6.512c0.216 0 0.423-0.086 0.576-0.238s0.238-0.36 0.238-0.576v-17.365c0-0.216-0.086-0.423-0.238-0.576s-0.36-0.238-0.576-0.238zM29.303 30.362h-4.884v-15.737h4.884v15.737zM31.929 3.838c-0.152-0.478-0.553-0.857-1.14-0.857h-2.095c0 0-0.673-2.127-0.673-2.138-0.347-1.118-1.964-1.129-2.323 0l-0.673 2.138h-2.095c-1.172 0-1.639 1.606-0.716 2.29l1.682 1.259c0 0-0.662 2.084-0.662 2.095-0.347 1.096 0.912 2.149 1.888 1.422l1.736-1.302c0 0 1.726 1.291 1.736 1.302 0.966 0.716 2.236-0.326 1.888-1.422l-0.662-2.095 1.682-1.259c0.478-0.347 0.586-0.944 0.423-1.433zM5.155 8.657c-2.843 0-5.155 2.312-5.155 5.155s2.312 5.155 5.155 5.155c2.844 0 5.155-2.312 5.155-5.155s-2.312-5.155-5.155-5.155zM19.944 6.631l-2.876-1.071c-0.967-0.358-1.558 1.158-0.569 1.527l1.036 0.385-5.123 2.344c-0.937 0.428-0.278 1.921 0.677 1.479l5.12-2.343-0.384 1.035c-0.355 0.954 1.162 1.544 1.526 0.568l1.070-2.877c0.037-0.1 0.055-0.207 0.051-0.314s-0.029-0.212-0.073-0.309c-0.044-0.097-0.108-0.185-0.186-0.258s-0.17-0.13-0.27-0.167z"></path>
</symbol>
<symbol id="icon-stars" viewBox="0 0 32 32">
<path fill="#2a275e" style="fill: var(--color1, #2a275e)" d="M31.415 19.562c-0.299-0.499-1.527-1.979-4.762-0.098l-5.687 3.307c-0.275 0.16-0.555 0.275-0.847 0.345 0.106-0.174 0.19-0.37 0.248-0.586 0.292-1.090-0.356-2.227-1.476-2.59-0.022-0.007-0.045-0.013-0.068-0.017-1.634-0.294-3.246-0.876-4.542-1.344-0.45-0.163-0.876-0.316-1.237-0.433-1.461-0.473-2.78 0.112-3.878 0.747l-4.22 2.441-0.3-0.529c-0.368-0.649-1.196-0.878-1.846-0.511l-1.596 0.902c-0.65 0.367-0.879 1.194-0.512 1.843l4.691 8.276c0.178 0.313 0.468 0.539 0.817 0.636 0.121 0.033 0.244 0.050 0.365 0.050 0.23 0 0.458-0.059 0.663-0.175l1.596-0.902c0.314-0.177 0.54-0.467 0.637-0.816s0.052-0.713-0.125-1.027l-0.571-1.008 0.95-0.547 7.279 1.947c0.413 0.11 0.817 0.165 1.214 0.165 0.79-0 1.545-0.219 2.256-0.656l10.321-6.345c0.946-0.582 1.247-2.047 0.63-3.075zM8.466 29.832c-0.011 0.041-0.030 0.078-0.056 0.112s-0.058 0.061-0.094 0.082l-1.596 0.902c-0.037 0.021-0.077 0.034-0.119 0.039s-0.084 0.002-0.125-0.010c-0.041-0.011-0.079-0.030-0.112-0.055s-0.061-0.058-0.082-0.094l-4.691-8.276c-0.086-0.151-0.030-0.351 0.121-0.436l1.596-0.902c0.047-0.027 0.101-0.040 0.155-0.040 0.113 0 0.224 0.058 0.282 0.161l4.691 8.276c0.021 0.037 0.034 0.077 0.039 0.119s0.002 0.084-0.010 0.124zM30.242 21.758l-10.321 6.345c-0.816 0.501-1.71 0.627-2.66 0.372l-7.486-2.003c-0.066-0.017-0.134-0.022-0.201-0.013s-0.132 0.031-0.191 0.065l-1.127 0.65-2.802-4.942 4.229-2.446c0.945-0.547 1.968-1.005 3.041-0.658 0.345 0.112 0.744 0.256 1.205 0.422 1.323 0.477 2.967 1.071 4.673 1.382 0.588 0.206 0.916 0.772 0.766 1.331-0.195 0.725-0.808 0.815-1.296 0.759-0.887-0.178-1.693-0.406-2.536-0.645-0.378-0.107-0.769-0.218-1.18-0.328-0.132-0.033-0.271-0.013-0.388 0.056s-0.202 0.181-0.237 0.311-0.017 0.27 0.050 0.388c0.067 0.118 0.178 0.205 0.308 0.242 0.404 0.108 0.791 0.218 1.165 0.324 0.869 0.246 1.7 0.481 2.629 0.667 0.003 0.001 0.006 0.001 0.009 0.002 0.232 0.046 0.471 0.089 0.717 0.129 1.061 0.17 2.002 0.004 2.877-0.505l5.687-3.307c1.631-0.948 2.885-1.047 3.355-0.263 0.323 0.539 0.179 1.38-0.285 1.665zM3.672 22.614c0.020 0.148-0.020 0.298-0.11 0.418s-0.224 0.199-0.372 0.22-0.299-0.016-0.42-0.105c-0.121-0.089-0.202-0.221-0.225-0.369-0.022-0.149 0.017-0.301 0.107-0.422s0.225-0.201 0.374-0.223c0.074-0.011 0.149-0.007 0.222 0.011s0.141 0.051 0.201 0.095c0.060 0.045 0.111 0.101 0.149 0.165s0.064 0.135 0.074 0.209zM6.249 17.601l7.137-0c0.034 0.104 0.099 0.194 0.188 0.258s0.195 0.099 0.304 0.099h9.441c0.109 0 0.215-0.035 0.304-0.099s0.154-0.154 0.188-0.258l7.137-0c0.073 0 0.144-0.015 0.21-0.045s0.125-0.073 0.174-0.126c0.049-0.054 0.085-0.117 0.107-0.186s0.030-0.142 0.022-0.214c-0.216-2.019-1.552-3.663-3.354-4.348 0.634-0.535 1.037-1.333 1.037-2.225 0-1.606-1.309-2.913-2.918-2.913s-2.918 1.307-2.918 2.913c0 0.892 0.404 1.691 1.039 2.226-0.812 0.31-1.535 0.815-2.103 1.472-0.508-0.487-1.109-0.866-1.767-1.116 0.634-0.535 1.037-1.333 1.037-2.225 0-1.606-1.309-2.913-2.918-2.913s-2.918 1.307-2.918 2.913c0 0.891 0.404 1.69 1.037 2.225-0.658 0.25-1.259 0.63-1.767 1.116-0.568-0.657-1.291-1.162-2.103-1.472 0.635-0.535 1.039-1.334 1.039-2.226 0-1.606-1.309-2.913-2.918-2.913s-2.918 1.307-2.918 2.913c0 0.891 0.404 1.69 1.037 2.225-1.802 0.685-3.138 2.329-3.354 4.348-0.008 0.072-0 0.145 0.022 0.214s0.059 0.132 0.107 0.186c0.048 0.054 0.108 0.097 0.174 0.126s0.138 0.045 0.21 0.045zM26.227 8.576c1.039 0 1.884 0.844 1.884 1.881s-0.845 1.881-1.884 1.881c-1.039 0-1.884-0.844-1.884-1.881s0.845-1.881 1.884-1.881zM26.227 13.37c1.971 0 3.645 1.34 4.106 3.198l-6.654 0c-0.156-0.578-0.41-1.125-0.752-1.617 0.801-0.996 2.009-1.582 3.3-1.582zM18.599 8.933c1.039 0 1.884 0.844 1.884 1.881s-0.845 1.881-1.884 1.881c-1.039 0-1.884-0.844-1.884-1.881s0.845-1.881 1.884-1.881zM18.599 13.727c1.971 0 3.645 1.34 4.106 3.198h-8.212c0.461-1.858 2.135-3.198 4.106-3.198zM9.086 10.457c0-1.037 0.845-1.881 1.884-1.881s1.884 0.844 1.884 1.881-0.845 1.881-1.884 1.881c-1.039 0-1.884-0.844-1.884-1.881zM10.97 13.37c1.291 0 2.5 0.585 3.3 1.582-0.342 0.492-0.596 1.039-0.752 1.617l-6.654 0c0.461-1.859 2.135-3.198 4.106-3.198zM7.515 3.389l1.407 1.129-0.474 1.739c-0.073 0.27 0.025 0.55 0.252 0.715s0.524 0.172 0.759 0.018l1.511-0.987 1.511 0.987c0.109 0.072 0.236 0.11 0.366 0.11 0.137 0 0.275-0.043 0.393-0.129 0.226-0.164 0.325-0.445 0.252-0.715l-0.474-1.739 1.407-1.129c0.218-0.175 0.303-0.46 0.217-0.726s-0.323-0.447-0.603-0.46l-1.803-0.088-0.641-1.685c-0.099-0.261-0.344-0.43-0.625-0.43s-0.525 0.169-0.625 0.43l-0.641 1.685-1.803 0.088c-0.28 0.014-0.516 0.194-0.603 0.46s-0.001 0.551 0.217 0.726zM15.144 3.389l1.407 1.129-0.474 1.739c-0.074 0.27 0.025 0.55 0.252 0.715s0.524 0.172 0.759 0.019l1.51-0.987 1.511 0.987c0.109 0.071 0.236 0.11 0.366 0.11 0.137 0 0.275-0.043 0.393-0.129 0.226-0.164 0.325-0.445 0.252-0.715l-0.474-1.739 1.407-1.129c0.218-0.175 0.303-0.46 0.217-0.726s-0.323-0.447-0.603-0.46l-1.803-0.088-0.641-1.685c-0.099-0.261-0.344-0.43-0.625-0.43s-0.525 0.169-0.625 0.43l-0.641 1.685-1.803 0.088c-0.28 0.014-0.516 0.194-0.603 0.46s-0.001 0.551 0.217 0.726zM22.773 3.389l1.407 1.129-0.474 1.739c-0.074 0.27 0.025 0.55 0.252 0.715 0.114 0.083 0.251 0.128 0.393 0.129 0.127 0 0.254-0.036 0.366-0.11l1.51-0.987 1.511 0.987c0.234 0.153 0.532 0.146 0.759-0.018s0.326-0.445 0.252-0.715l-0.474-1.739 1.407-1.129c0.218-0.175 0.303-0.46 0.217-0.726s-0.323-0.447-0.603-0.46l-1.803-0.088-0.641-1.685c-0.099-0.261-0.344-0.43-0.625-0.43s-0.525 0.169-0.625 0.43l-0.641 1.685-1.803 0.088c-0.28 0.014-0.516 0.194-0.603 0.46s-0.002 0.551 0.217 0.726z"></path>
</symbol>
<symbol id="icon-wallet" viewBox="0 0 26 32">
<path fill="none" stroke="#2a275e" style="stroke: var(--color1, #2a275e)" stroke-linejoin="round" stroke-linecap="round" stroke-miterlimit="10" stroke-width="1.6552" d="M6.964 26.818h11.868v0.989c-0 0.787-0.313 1.542-0.869 2.098s-1.311 0.869-2.098 0.869h-11.868c-0.787-0-1.542-0.313-2.098-0.869s-0.869-1.311-0.869-2.098v-23.736c0-0.787 0.313-1.542 0.869-2.098s1.311-0.869 2.098-0.869h11.868c0.787 0 1.542 0.313 2.098 0.869s0.869 1.311 0.869 2.098v4.945h-11.868M6.964 26.818c-0.26 0-0.517-0.051-0.757-0.151s-0.458-0.245-0.642-0.429c-0.184-0.184-0.33-0.402-0.429-0.642s-0.151-0.497-0.151-0.757v-13.846M6.964 26.818l15.824 0c0.26 0 0.517-0.051 0.757-0.151s0.458-0.245 0.642-0.429c0.184-0.184 0.33-0.402 0.429-0.642s0.151-0.497 0.151-0.757v-9.89M4.986 10.994c0 0 0.051-0.517 0.151-0.757s0.245-0.458 0.429-0.642c0.184-0.184 0.402-0.33 0.642-0.429s0.497-0.151 0.757-0.15M4.986 10.994c0 0 0.051 0.517 0.151 0.757s0.245 0.458 0.429 0.642c0.184 0.184 0.402 0.33 0.642 0.429s0.497 0.151 0.757 0.15M4.986 10.994c0 0 0.886-1.978 1.978-1.978M4.986 10.994c35.368-0.752 9.946 1.982 1.978 1.978M6.964 9.016c6.18 0 15.824 0 15.824 0 0.26-0 0.517 0.051 0.757 0.15s0.458 0.245 0.642 0.429c0.184 0.184 0.33 0.402 0.429 0.642s0.151 0.497 0.151 0.757v3.956M8.942 5.060h1.978M24.767 14.95c0-0.26-0.051-0.517-0.151-0.757s-0.245-0.458-0.429-0.642c-0.184-0.184-0.402-0.33-0.642-0.429M24.767 14.95v-0.001c0-1.092-0.885-1.977-1.977-1.977h-15.825M24.767 17.917h-4.945c-1.092 0-1.978 0.886-1.978 1.978s0.886 1.978 1.978 1.978h4.945v-3.956z"></path>
</symbol>
</defs>
</svg>
